<svg width="372" height="64" viewBox="0 0 372 64" fill="none" xmlns="http://www.w3.org/2000/svg">
<path d="M41.946 10.6756C40.9884 10.6756 40.1661 10.495 39.4793 10.1338C38.7925 9.76279 38.2653 9.20632 37.8977 8.46434C37.5302 7.71261 37.3464 6.76562 37.3464 5.62337C37.3464 3.95393 37.743 2.69453 38.5362 1.84517C39.3391 0.986042 40.4757 0.556479 41.946 0.556479C42.9133 0.556479 43.7404 0.741972 44.4272 1.11296C45.114 1.48394 45.6412 2.04042 46.0088 2.7824C46.386 3.52437 46.5747 4.47136 46.5747 5.62337C46.5747 7.28304 46.1732 8.54245 45.3703 9.40157C44.5771 10.2509 43.4357 10.6756 41.946 10.6756ZM41.946 9.02082C42.5264 9.02082 43.0052 8.90855 43.3825 8.68401C43.7694 8.4497 44.0596 8.08359 44.2531 7.58569C44.4465 7.08779 44.5433 6.4288 44.5433 5.60873C44.5433 4.78865 44.4465 4.13454 44.2531 3.6464C44.0596 3.1485 43.7694 2.78728 43.3825 2.56273C43.0052 2.33819 42.5264 2.22592 41.946 2.22592C41.385 2.22592 40.911 2.34307 40.524 2.57738C40.1468 2.80192 39.8614 3.16315 39.6679 3.66105C39.4745 4.14919 39.3778 4.80329 39.3778 5.62337C39.3778 6.44344 39.4745 7.10243 39.6679 7.60034C39.8614 8.09824 40.1468 8.45946 40.524 8.68401C40.911 8.90855 41.385 9.02082 41.946 9.02082Z" fill="#1D335A"/>
<path d="M48.8592 10.4999V4.58363H47.7419V3.11921H48.8737V2.88491C48.8737 2.387 48.9269 1.9672 49.0333 1.62551C49.1397 1.28381 49.28 1.00557 49.4541 0.790786C49.6379 0.566242 49.841 0.400274 50.0635 0.292884C50.2957 0.17573 50.5375 0.0976273 50.789 0.058576C51.0405 0.0195253 51.292 0 51.5435 0C51.6886 0 51.8434 0.00976267 52.0078 0.029288C52.1723 0.0488133 52.3125 0.0781016 52.4286 0.117153V1.7573C52.3416 1.6792 52.2448 1.62062 52.1384 1.58157C52.0417 1.53276 51.9111 1.50835 51.7467 1.50835C51.6112 1.50835 51.4806 1.523 51.3549 1.55228C51.2291 1.57181 51.1179 1.6255 51.0212 1.71337C50.9244 1.79147 50.847 1.90863 50.789 2.06483C50.7406 2.22104 50.7164 2.43094 50.7164 2.69453V3.11921H52.4286V4.58363H50.7019V10.4999H48.8592Z" fill="#1D335A"/>
<path d="M54.4846 10.4999V4.58363H53.3673V3.11921H54.4991V2.88491C54.4991 2.387 54.5523 1.9672 54.6587 1.62551C54.7651 1.28381 54.9054 1.00557 55.0795 0.790786C55.2633 0.566242 55.4664 0.400274 55.6889 0.292884C55.9211 0.17573 56.1629 0.0976273 56.4144 0.058576C56.6659 0.0195253 56.9174 0 57.1689 0C57.314 0 57.4688 0.00976267 57.6333 0.029288C57.7977 0.0488133 57.938 0.0781016 58.054 0.117153V1.7573C57.967 1.6792 57.8703 1.62062 57.7638 1.58157C57.6671 1.53276 57.5365 1.50835 57.3721 1.50835C57.2367 1.50835 57.1061 1.523 56.9803 1.55228C56.8546 1.57181 56.7433 1.6255 56.6466 1.71337C56.5498 1.79147 56.4725 1.90863 56.4144 2.06483C56.3661 2.22104 56.3419 2.43094 56.3419 2.69453V3.11921H58.054V4.58363H56.3274V10.4999H54.4846ZM59.4325 10.4999V3.19243H61.2752L61.2898 10.4999H59.4325ZM59.389 2.0209V0.497902H61.3188V2.0209H59.389Z" fill="#1D335A"/>
<path d="M66.6783 10.661C66.1946 10.661 65.7303 10.5926 65.2853 10.456C64.8403 10.3193 64.4437 10.0996 64.0955 9.79696C63.7473 9.49432 63.4716 9.10381 63.2684 8.62543C63.0653 8.14705 62.9637 7.56617 62.9637 6.88277C62.9637 6.17009 63.0605 5.56479 63.2539 5.06689C63.4474 4.56899 63.7134 4.16383 64.052 3.85142C64.3905 3.52925 64.7823 3.29982 65.2273 3.16314C65.6819 3.0167 66.1607 2.94348 66.6637 2.94348C67.0507 2.94348 67.4473 2.98253 67.8536 3.06064C68.2598 3.13874 68.6226 3.25101 68.9418 3.39745V5.00831C68.6129 4.86187 68.284 4.74472 67.9551 4.65685C67.6262 4.55923 67.2877 4.51041 66.9394 4.51041C66.2623 4.51041 65.7351 4.68126 65.3578 5.02296C64.9806 5.36466 64.792 5.92602 64.792 6.70704C64.792 7.50759 64.9613 8.10312 65.2998 8.49363C65.648 8.88414 66.2188 9.0794 67.012 9.0794C67.3699 9.0794 67.7181 9.0257 68.0567 8.91831C68.3953 8.80116 68.6951 8.67424 68.9563 8.53756V10.1631C68.6177 10.329 68.2647 10.4511 67.8971 10.5292C67.5295 10.617 67.1232 10.661 66.6783 10.661Z" fill="#1D335A"/>
<path d="M70.6398 10.4999V3.19243H72.4826L72.4971 10.4999H70.6398ZM70.5963 2.0209V0.497902H72.5261V2.0209H70.5963Z" fill="#1D335A"/>
<path d="M77.2917 10.7195C76.8854 10.7195 76.4985 10.6805 76.1309 10.6024C75.7633 10.5243 75.4344 10.3974 75.1442 10.2216C74.854 10.0362 74.6219 9.7872 74.4477 9.47479C74.2833 9.15262 74.2011 8.75235 74.2011 8.27397C74.2011 7.77607 74.3026 7.35627 74.5058 7.01457C74.7089 6.66311 75.004 6.39951 75.3909 6.22378C75.7875 6.03829 76.2712 5.94554 76.8419 5.94554C77.1901 5.94554 77.5142 5.97971 77.814 6.04805C78.1139 6.10663 78.3848 6.18961 78.6266 6.297C78.8684 6.40439 79.0667 6.52155 79.2215 6.64846L79.3521 7.6882C79.149 7.55152 78.8878 7.44413 78.5686 7.36603C78.259 7.27816 77.9205 7.23423 77.5529 7.23423C77.0402 7.23423 76.6581 7.31721 76.4066 7.48318C76.1551 7.64915 76.0293 7.90786 76.0293 8.25932C76.0293 8.50339 76.097 8.70841 76.2325 8.87438C76.3679 9.03058 76.542 9.15262 76.7548 9.24049C76.9676 9.31859 77.1901 9.35764 77.4223 9.35764C77.9543 9.35764 78.3364 9.32347 78.5686 9.25513C78.8104 9.17703 78.9313 9.01594 78.9313 8.77187V5.85768C78.9313 5.3793 78.7814 5.03272 78.4815 4.81794C78.1816 4.59339 77.7608 4.48112 77.2191 4.48112C76.8032 4.48112 76.3776 4.55434 75.9423 4.70079C75.507 4.83746 75.1539 5.01808 74.883 5.24262V3.55854C75.1442 3.39257 75.536 3.24613 76.0583 3.11921C76.5807 2.9923 77.1418 2.92884 77.7415 2.92884C77.993 2.92884 78.259 2.95325 78.5395 3.00206C78.8201 3.05087 79.0861 3.12898 79.3376 3.23637C79.5988 3.34376 79.8358 3.49508 80.0486 3.69034C80.2614 3.87583 80.4307 4.11502 80.5564 4.4079C80.6822 4.69102 80.745 5.0376 80.745 5.44764V8.9476C80.745 9.40645 80.5999 9.76768 80.3097 10.0313C80.0196 10.2851 79.6181 10.4608 79.1054 10.5585C78.5927 10.6659 77.9882 10.7195 77.2917 10.7195Z" fill="#1D335A"/>
<path d="M84.6106 10.4999H82.7823V0.336816H84.6106V10.4999Z" fill="#1D335A"/>
<path d="M92.8797 10.4999L90.0503 0.732209H92.1978L94.2001 8.68401H93.8374L96.1445 0.732209H97.7406L100.091 8.80116H99.6704L101.687 0.732209H103.835L101.005 10.4999H99.0465L96.7394 3.00206H97.1457L94.8386 10.4999H92.8797Z" fill="#1D335A"/>
<path d="M107.712 10.7195C106.986 10.7195 106.353 10.5731 105.811 10.2802C105.269 9.97758 104.848 9.53825 104.549 8.96224C104.249 8.38624 104.099 7.69308 104.099 6.88277C104.099 5.59408 104.403 4.61292 105.013 3.93929C105.632 3.25589 106.498 2.91419 107.61 2.91419C108.413 2.91419 109.056 3.08992 109.54 3.44138C110.033 3.79285 110.391 4.29563 110.614 4.94974C110.846 5.59408 110.957 6.36534 110.947 7.26352H105.289L105.143 6.00412H109.482L109.134 6.53131C109.114 5.76005 108.979 5.20845 108.727 4.87652C108.486 4.53482 108.094 4.36397 107.552 4.36397C107.223 4.36397 106.933 4.44207 106.682 4.59828C106.44 4.74472 106.251 4.99367 106.116 5.34513C105.99 5.69659 105.927 6.17985 105.927 6.7949C105.927 7.5564 106.106 8.14217 106.464 8.55221C106.822 8.95248 107.368 9.15262 108.103 9.15262C108.403 9.15262 108.689 9.12333 108.96 9.06475C109.24 8.99642 109.496 8.91831 109.729 8.83045C109.97 8.74258 110.174 8.6596 110.338 8.5815V10.2216C109.999 10.3681 109.613 10.4852 109.177 10.5731C108.752 10.6707 108.263 10.7195 107.712 10.7195Z" fill="#1D335A"/>
<path d="M115.789 10.7195C115.382 10.7195 114.986 10.6951 114.599 10.6463C114.221 10.5975 113.878 10.5096 113.568 10.3827C113.269 10.2461 113.027 10.0606 112.843 9.82625C112.659 9.59195 112.567 9.2893 112.567 8.91831V0.27824H114.381V4.2761L113.975 3.69034C114.159 3.51461 114.386 3.37305 114.657 3.26565C114.928 3.15826 115.203 3.08016 115.484 3.03135C115.774 2.97277 116.016 2.94348 116.209 2.94348C117.302 2.94348 118.125 3.27542 118.676 3.93929C119.237 4.59339 119.518 5.53062 119.518 6.75097C119.518 7.532 119.416 8.18122 119.213 8.69865C119.019 9.20632 118.749 9.60659 118.4 9.89947C118.052 10.1924 117.655 10.4023 117.21 10.5292C116.766 10.6561 116.292 10.7195 115.789 10.7195ZM115.73 9.15262C116.233 9.15262 116.625 9.05011 116.906 8.84509C117.186 8.64007 117.385 8.36671 117.501 8.02502C117.617 7.68332 117.675 7.29281 117.675 6.85348C117.675 6.297 117.602 5.84303 117.457 5.49157C117.312 5.14011 117.104 4.8814 116.833 4.71543C116.562 4.5397 116.229 4.45183 115.832 4.45183C115.61 4.45183 115.363 4.48112 115.092 4.5397C114.831 4.59828 114.594 4.69102 114.381 4.81794V8.4497C114.381 8.63519 114.444 8.78163 114.57 8.88902C114.705 8.98665 114.874 9.05499 115.078 9.09404C115.29 9.13309 115.508 9.15262 115.73 9.15262Z" fill="#1D335A"/>
<path d="M128.05 10.617C127.518 10.617 127.02 10.5487 126.556 10.412C126.101 10.2656 125.68 10.0947 125.294 9.89947V8.15681C125.68 8.38136 126.087 8.58638 126.512 8.77187C126.948 8.9476 127.422 9.03547 127.934 9.03547C128.582 9.03547 129.085 8.91831 129.443 8.68401C129.801 8.4497 129.98 8.108 129.98 7.65891C129.98 7.20006 129.816 6.83884 129.487 6.57524C129.158 6.31165 128.621 6.17985 127.876 6.17985H126.57V4.62756H127.92C128.462 4.62756 128.863 4.52017 129.124 4.30539C129.385 4.08085 129.516 3.79285 129.516 3.44138C129.516 3.1485 129.439 2.91419 129.284 2.73846C129.139 2.55297 128.931 2.42117 128.66 2.34307C128.389 2.2552 128.075 2.21127 127.717 2.21127C127.359 2.21127 127.006 2.2552 126.657 2.34307C126.309 2.43094 125.922 2.57738 125.497 2.7824V1.18618C125.835 1.02021 126.208 0.883532 126.614 0.776142C127.03 0.658988 127.465 0.600411 127.92 0.600411C128.413 0.600411 128.863 0.658988 129.269 0.776142C129.685 0.893296 130.043 1.06903 130.343 1.30333C130.643 1.52788 130.875 1.80612 131.039 2.13805C131.204 2.46022 131.286 2.83121 131.286 3.25101C131.286 3.55366 131.233 3.82213 131.126 4.05644C131.02 4.29075 130.89 4.49089 130.735 4.65685C130.58 4.82282 130.425 4.95462 130.27 5.05225C130.125 5.14011 130.004 5.19381 129.908 5.21333C130.053 5.24262 130.227 5.32072 130.43 5.44764C130.633 5.57456 130.831 5.7454 131.025 5.96019C131.228 6.16521 131.397 6.41904 131.533 6.72168C131.668 7.01457 131.736 7.35138 131.736 7.73213C131.736 8.20075 131.644 8.61567 131.46 8.97689C131.276 9.32835 131.02 9.62612 130.691 9.87019C130.362 10.1143 129.975 10.2997 129.53 10.4267C129.085 10.5536 128.592 10.617 128.05 10.617Z" fill="#1D335A"/>
<path d="M133.721 10.4999V8.61078H135.636V10.4999H133.721Z" fill="#1D335A"/>
<path d="M141.364 10.6756C139.971 10.6756 138.941 10.2558 138.273 9.41621C137.606 8.57661 137.272 7.31721 137.272 5.63801C137.272 3.95881 137.606 2.69941 138.273 1.85981C138.941 1.01045 139.971 0.585767 141.364 0.585767C142.766 0.585767 143.801 1.01045 144.469 1.85981C145.136 2.69941 145.47 3.95881 145.47 5.63801C145.47 7.31721 145.136 8.57661 144.469 9.41621C143.801 10.2558 142.766 10.6756 141.364 10.6756ZM141.364 9.03547C141.615 9.03547 141.867 8.99642 142.118 8.91831C142.37 8.84021 142.597 8.68889 142.8 8.46434C143.003 8.23004 143.163 7.88834 143.279 7.43925C143.405 6.9804 143.468 6.37999 143.468 5.63801C143.468 4.88628 143.405 4.28587 143.279 3.83678C143.163 3.38769 143.003 3.05087 142.8 2.82633C142.597 2.59202 142.37 2.43582 142.118 2.35771C141.867 2.26985 141.615 2.22592 141.364 2.22592C141.112 2.22592 140.861 2.26985 140.609 2.35771C140.367 2.43582 140.145 2.59202 139.942 2.82633C139.739 3.05087 139.574 3.38769 139.449 3.83678C139.332 4.28587 139.274 4.88628 139.274 5.63801C139.274 6.37999 139.332 6.9804 139.449 7.43925C139.574 7.88834 139.739 8.23004 139.942 8.46434C140.145 8.68889 140.367 8.84021 140.609 8.91831C140.861 8.99642 141.112 9.03547 141.364 9.03547Z" fill="#1D335A"/>
<path d="M147.228 12.14L148.302 9.26977H149.898L148.592 12.14H147.228Z" fill="#1D335A"/>
<path d="M156.24 10.4999V0.732209H158.272L161.667 5.65266L160.55 5.74052L164.105 0.732209H166.078V10.4999H164.119V2.31378L164.569 2.84097L161.072 7.62962L157.677 2.82633L158.141 2.41629V10.4999H156.24Z" fill="#1D335A"/>
<path d="M171.405 10.7195C170.68 10.7195 170.046 10.5731 169.504 10.2802C168.963 9.97758 168.542 9.53825 168.242 8.96224C167.942 8.38624 167.792 7.69308 167.792 6.88277C167.792 5.59408 168.097 4.61292 168.706 3.93929C169.325 3.25589 170.191 2.91419 171.304 2.91419C172.106 2.91419 172.75 3.08992 173.233 3.44138C173.727 3.79285 174.085 4.29563 174.307 4.94974C174.539 5.59408 174.65 6.36534 174.641 7.26352H168.982L168.837 6.00412H173.175L172.827 6.53131C172.808 5.76005 172.672 5.20845 172.421 4.87652C172.179 4.53482 171.787 4.36397 171.245 4.36397C170.917 4.36397 170.626 4.44207 170.375 4.59828C170.133 4.74472 169.944 4.99367 169.809 5.34513C169.683 5.69659 169.62 6.17985 169.62 6.7949C169.62 7.5564 169.799 8.14217 170.157 8.55221C170.515 8.95248 171.062 9.15262 171.797 9.15262C172.097 9.15262 172.382 9.12333 172.653 9.06475C172.933 8.99642 173.19 8.91831 173.422 8.83045C173.664 8.74258 173.867 8.6596 174.031 8.5815V10.2216C173.693 10.3681 173.306 10.4852 172.871 10.5731C172.445 10.6707 171.956 10.7195 171.405 10.7195Z" fill="#1D335A"/>
<path d="M179.061 10.7342C178.307 10.7342 177.731 10.5487 177.334 10.1777C176.938 9.79696 176.74 9.25025 176.74 8.53756V4.58363H175.608V3.11921H176.74V1.08367H178.64V3.11921H180.338V4.58363H178.64V8.24468C178.64 8.54733 178.698 8.77187 178.814 8.91831C178.931 9.06475 179.134 9.13798 179.424 9.13798C179.579 9.13798 179.738 9.11357 179.903 9.06475C180.077 9.00618 180.222 8.93784 180.338 8.85974V10.4706C180.145 10.5682 179.932 10.6366 179.7 10.6756C179.477 10.7147 179.264 10.7342 179.061 10.7342Z" fill="#1D335A"/>
<path d="M184.77 10.7195C184.364 10.7195 183.977 10.6805 183.609 10.6024C183.241 10.5243 182.913 10.3974 182.622 10.2216C182.332 10.0362 182.1 9.7872 181.926 9.47479C181.761 9.15262 181.679 8.75235 181.679 8.27397C181.679 7.77607 181.781 7.35627 181.984 7.01457C182.187 6.66311 182.482 6.39951 182.869 6.22378C183.266 6.03829 183.749 5.94554 184.32 5.94554C184.668 5.94554 184.992 5.97971 185.292 6.04805C185.592 6.10663 185.863 6.18961 186.105 6.297C186.347 6.40439 186.545 6.52155 186.7 6.64846L186.83 7.6882C186.627 7.55152 186.366 7.44413 186.047 7.36603C185.737 7.27816 185.399 7.23423 185.031 7.23423C184.518 7.23423 184.136 7.31721 183.885 7.48318C183.633 7.64915 183.507 7.90786 183.507 8.25932C183.507 8.50339 183.575 8.70841 183.711 8.87438C183.846 9.03058 184.02 9.15262 184.233 9.24049C184.446 9.31859 184.668 9.35764 184.9 9.35764C185.432 9.35764 185.815 9.32347 186.047 9.25513C186.289 9.17703 186.409 9.01594 186.409 8.77187V5.85768C186.409 5.3793 186.26 5.03272 185.96 4.81794C185.66 4.59339 185.239 4.48112 184.697 4.48112C184.281 4.48112 183.856 4.55434 183.42 4.70079C182.985 4.83746 182.632 5.01808 182.361 5.24262V3.55854C182.622 3.39257 183.014 3.24613 183.536 3.11921C184.059 2.9923 184.62 2.92884 185.22 2.92884C185.471 2.92884 185.737 2.95325 186.018 3.00206C186.298 3.05087 186.564 3.12898 186.816 3.23637C187.077 3.34376 187.314 3.49508 187.527 3.69034C187.74 3.87583 187.909 4.11502 188.035 4.4079C188.16 4.69102 188.223 5.0376 188.223 5.44764V8.9476C188.223 9.40645 188.078 9.76768 187.788 10.0313C187.498 10.2851 187.096 10.4608 186.584 10.5585C186.071 10.6659 185.466 10.7195 184.77 10.7195Z" fill="#1D335A"/>
<path d="M192.316 10.4999L189.254 3.11921H191.228L193.593 9.03547L193.143 9.06475L195.305 3.11921H197.22L194.159 10.4999H192.316Z" fill="#1D335A"/>
<path d="M201.403 10.7195C200.677 10.7195 200.044 10.5731 199.502 10.2802C198.96 9.97758 198.539 9.53825 198.239 8.96224C197.94 8.38624 197.79 7.69308 197.79 6.88277C197.79 5.59408 198.094 4.61292 198.704 3.93929C199.323 3.25589 200.189 2.91419 201.301 2.91419C202.104 2.91419 202.747 3.08992 203.231 3.44138C203.724 3.79285 204.082 4.29563 204.305 4.94974C204.537 5.59408 204.648 6.36534 204.638 7.26352H198.979L198.834 6.00412H203.173L202.825 6.53131C202.805 5.76005 202.67 5.20845 202.418 4.87652C202.176 4.53482 201.785 4.36397 201.243 4.36397C200.914 4.36397 200.624 4.44207 200.372 4.59828C200.131 4.74472 199.942 4.99367 199.807 5.34513C199.681 5.69659 199.618 6.17985 199.618 6.7949C199.618 7.5564 199.797 8.14217 200.155 8.55221C200.513 8.95248 201.059 9.15262 201.794 9.15262C202.094 9.15262 202.38 9.12333 202.65 9.06475C202.931 8.99642 203.187 8.91831 203.42 8.83045C203.661 8.74258 203.864 8.6596 204.029 8.5815V10.2216C203.69 10.3681 203.303 10.4852 202.868 10.5731C202.442 10.6707 201.954 10.7195 201.403 10.7195Z" fill="#1D335A"/>
<path d="M206.258 10.4999V3.83678C206.394 3.74891 206.631 3.63176 206.969 3.48532C207.317 3.33888 207.719 3.21196 208.174 3.10457C208.628 2.98742 209.088 2.92884 209.552 2.92884C209.9 2.92884 210.176 2.95813 210.379 3.0167C210.592 3.06552 210.756 3.12898 210.872 3.20708V4.61292C210.679 4.58363 210.456 4.55922 210.205 4.5397C209.963 4.52017 209.712 4.51529 209.45 4.52505C209.199 4.52505 208.952 4.53482 208.71 4.55434C208.478 4.57387 208.275 4.59828 208.101 4.62756V10.4999H206.258Z" fill="#1D335A"/>
<path d="M214.329 10.7195C213.806 10.7195 213.361 10.661 212.994 10.5438C212.626 10.4364 212.273 10.3046 211.935 10.1484V8.47899C212.157 8.62543 212.389 8.76699 212.631 8.90367C212.883 9.03059 213.149 9.13309 213.429 9.2112C213.719 9.2893 214.029 9.32835 214.358 9.32835C214.745 9.32835 215.03 9.25513 215.214 9.10869C215.407 8.95248 215.504 8.76699 215.504 8.55221C215.504 8.34719 215.431 8.19098 215.286 8.08359C215.141 7.96644 214.953 7.86881 214.72 7.79071C214.488 7.71261 214.242 7.63451 213.98 7.5564C213.739 7.49783 213.492 7.41972 213.24 7.3221C212.999 7.22447 212.776 7.09267 212.573 6.9267C212.37 6.76074 212.205 6.55084 212.08 6.297C211.964 6.03341 211.906 5.71612 211.906 5.34513C211.906 4.9058 211.993 4.53482 212.167 4.23217C212.341 3.92952 212.568 3.68545 212.849 3.49996C213.129 3.31447 213.439 3.18267 213.777 3.10457C214.116 3.0167 214.445 2.97277 214.764 2.97277C215.315 2.9923 215.76 3.06064 216.099 3.17779C216.437 3.28518 216.757 3.42674 217.057 3.60247L217.071 5.11082C216.732 4.92533 216.404 4.75936 216.084 4.61292C215.765 4.45672 215.402 4.37861 214.996 4.37861C214.619 4.37861 214.324 4.44695 214.111 4.58363C213.908 4.71055 213.806 4.89116 213.806 5.12547C213.806 5.33049 213.869 5.49645 213.995 5.62337C214.121 5.75029 214.285 5.84791 214.488 5.91625C214.691 5.98459 214.914 6.05293 215.156 6.12127C215.398 6.18961 215.649 6.26771 215.91 6.35558C216.171 6.43368 216.413 6.55084 216.636 6.70704C216.858 6.86324 217.037 7.07314 217.173 7.33674C217.318 7.59057 217.39 7.93227 217.39 8.36183C217.381 8.92808 217.231 9.38693 216.94 9.73839C216.65 10.0801 216.268 10.329 215.794 10.4852C215.33 10.6414 214.841 10.7195 214.329 10.7195Z" fill="#1D335A"/>
<path d="M222.275 10.7195C221.549 10.7195 220.916 10.5731 220.374 10.2802C219.832 9.97758 219.411 9.53825 219.112 8.96224C218.812 8.38624 218.662 7.69308 218.662 6.88277C218.662 5.59408 218.967 4.61292 219.576 3.93929C220.195 3.25589 221.061 2.91419 222.173 2.91419C222.976 2.91419 223.619 3.08992 224.103 3.44138C224.596 3.79285 224.954 4.29563 225.177 4.94974C225.409 5.59408 225.52 6.36534 225.51 7.26352H219.852L219.707 6.00412H224.045L223.697 6.53131C223.677 5.76005 223.542 5.20845 223.29 4.87652C223.049 4.53482 222.657 4.36397 222.115 4.36397C221.786 4.36397 221.496 4.44207 221.245 4.59828C221.003 4.74472 220.814 4.99367 220.679 5.34513C220.553 5.69659 220.49 6.17985 220.49 6.7949C220.49 7.5564 220.669 8.14217 221.027 8.55221C221.385 8.95248 221.931 9.15262 222.667 9.15262C222.966 9.15262 223.252 9.12333 223.523 9.06475C223.803 8.99642 224.06 8.91831 224.292 8.83045C224.533 8.74258 224.737 8.6596 224.901 8.5815V10.2216C224.563 10.3681 224.176 10.4852 223.74 10.5731C223.315 10.6707 222.826 10.7195 222.275 10.7195Z" fill="#1D335A"/>
<path d="M227.188 12.14L228.262 9.26977H229.858L228.552 12.14H227.188Z" fill="#1D335A"/>
<path d="M238.174 7.14637V10.4999H236.201V0.732209H240.293C241.405 0.732209 242.276 0.990923 242.904 1.50835C243.533 2.02578 243.848 2.81168 243.848 3.86607C243.848 4.92045 243.533 5.73076 242.904 6.297C242.276 6.86324 241.405 7.14637 240.293 7.14637H238.174ZM238.174 5.55015H240.046C240.375 5.55015 240.65 5.5111 240.873 5.43299C241.095 5.34513 241.27 5.22798 241.395 5.08153C241.521 4.92533 241.608 4.75448 241.656 4.56899C241.715 4.38349 241.744 4.18336 241.744 3.96858C241.744 3.74403 241.715 3.53413 241.656 3.33888C241.608 3.14362 241.521 2.96789 241.395 2.81168C241.27 2.65548 241.095 2.53833 240.873 2.46022C240.65 2.37236 240.375 2.32843 240.046 2.32843H238.174V5.55015Z" fill="#1D335A"/>
<path d="M245.58 10.4999V9.05011C245.909 8.83533 246.272 8.57661 246.668 8.27397C247.075 7.96156 247.471 7.61986 247.858 7.24888C248.255 6.86813 248.613 6.47761 248.932 6.07734C249.261 5.6673 249.522 5.26215 249.716 4.86187C249.919 4.4616 250.02 4.08085 250.02 3.71962C250.02 3.39745 249.953 3.12409 249.817 2.89955C249.682 2.66524 249.474 2.48463 249.193 2.35771C248.922 2.2308 248.584 2.16734 248.177 2.16734C247.674 2.16734 247.22 2.26985 246.814 2.47487C246.407 2.67989 246.025 2.91908 245.667 3.19243V1.42049C246.035 1.19594 246.465 0.995805 246.959 0.820075C247.452 0.644344 248.032 0.556479 248.7 0.556479C249.435 0.556479 250.044 0.683395 250.528 0.937228C251.021 1.1813 251.389 1.523 251.631 1.96232C251.873 2.40165 251.994 2.90931 251.994 3.48532C251.994 3.94417 251.897 4.38838 251.703 4.81794C251.51 5.2475 251.254 5.66242 250.934 6.0627C250.625 6.46297 250.277 6.84372 249.89 7.20494C249.512 7.5564 249.13 7.88834 248.743 8.20075C248.356 8.50339 247.999 8.77675 247.67 9.02082L247.249 8.65472H252.168V10.4999H245.58Z" fill="#1D335A"/>
<path d="M254.324 10.4999V0.732209H260.81V2.32843H256.297V4.80329H260.215V6.41416H256.297V8.90367H260.81V10.4999H254.324Z" fill="#1D335A"/>
<path d="M268.909 7.14637V10.4999H266.935V0.732209H271.027C272.139 0.732209 273.01 0.990923 273.639 1.50835C274.267 2.02578 274.582 2.81168 274.582 3.86607C274.582 4.92045 274.267 5.73076 273.639 6.297C273.01 6.86324 272.139 7.14637 271.027 7.14637H268.909ZM268.909 5.55015H270.78C271.109 5.55015 271.385 5.5111 271.607 5.43299C271.83 5.34513 272.004 5.22798 272.13 5.08153C272.255 4.92533 272.342 4.75448 272.391 4.56899C272.449 4.38349 272.478 4.18336 272.478 3.96858C272.478 3.74403 272.449 3.53413 272.391 3.33888C272.342 3.14362 272.255 2.96789 272.13 2.81168C272.004 2.65548 271.83 2.53833 271.607 2.46022C271.385 2.37236 271.109 2.32843 270.78 2.32843H268.909V5.55015Z" fill="#1D335A"/>
<path d="M279.013 10.7195C278.607 10.7195 278.22 10.6805 277.853 10.6024C277.485 10.5243 277.156 10.3974 276.866 10.2216C276.576 10.0362 276.344 9.7872 276.169 9.47479C276.005 9.15262 275.923 8.75235 275.923 8.27397C275.923 7.77607 276.024 7.35627 276.228 7.01457C276.431 6.66311 276.726 6.39951 277.113 6.22378C277.509 6.03829 277.993 5.94554 278.564 5.94554C278.912 5.94554 279.236 5.97971 279.536 6.04805C279.836 6.10663 280.106 6.18961 280.348 6.297C280.59 6.40439 280.788 6.52155 280.943 6.64846L281.074 7.6882C280.871 7.55152 280.609 7.44413 280.29 7.36603C279.981 7.27816 279.642 7.23423 279.275 7.23423C278.762 7.23423 278.38 7.31721 278.128 7.48318C277.877 7.64915 277.751 7.90786 277.751 8.25932C277.751 8.50339 277.819 8.70841 277.954 8.87438C278.09 9.03058 278.264 9.15262 278.477 9.24049C278.689 9.31859 278.912 9.35764 279.144 9.35764C279.676 9.35764 280.058 9.32347 280.29 9.25513C280.532 9.17703 280.653 9.01594 280.653 8.77187V5.85768C280.653 5.3793 280.503 5.03272 280.203 4.81794C279.903 4.59339 279.483 4.48112 278.941 4.48112C278.525 4.48112 278.099 4.55434 277.664 4.70079C277.229 4.83746 276.876 5.01808 276.605 5.24262V3.55854C276.866 3.39257 277.258 3.24613 277.78 3.11921C278.302 2.9923 278.863 2.92884 279.463 2.92884C279.715 2.92884 279.981 2.95325 280.261 3.00206C280.542 3.05087 280.808 3.12898 281.059 3.23637C281.32 3.34376 281.557 3.49508 281.77 3.69034C281.983 3.87583 282.152 4.11502 282.278 4.4079C282.404 4.69102 282.467 5.0376 282.467 5.44764V8.9476C282.467 9.40645 282.322 9.76768 282.031 10.0313C281.741 10.2851 281.34 10.4608 280.827 10.5585C280.314 10.6659 279.71 10.7195 279.013 10.7195Z" fill="#1D335A"/>
<path d="M284.504 10.4999V3.83678C284.639 3.74891 284.876 3.63176 285.215 3.48532C285.563 3.33888 285.965 3.21196 286.419 3.10457C286.874 2.98742 287.333 2.92884 287.798 2.92884C288.146 2.92884 288.422 2.95813 288.625 3.0167C288.838 3.06552 289.002 3.12898 289.118 3.20708V4.61292C288.925 4.58363 288.702 4.55922 288.451 4.5397C288.209 4.52017 287.957 4.51529 287.696 4.52505C287.445 4.52505 287.198 4.53482 286.956 4.55434C286.724 4.57387 286.521 4.59828 286.347 4.62756V10.4999H284.504Z" fill="#1D335A"/>
<path d="M293.298 10.7342C292.544 10.7342 291.968 10.5487 291.572 10.1777C291.175 9.79696 290.977 9.25025 290.977 8.53756V4.58363H289.845V3.11921H290.977V1.08367H292.878V3.11921H294.575V4.58363H292.878V8.24468C292.878 8.54733 292.936 8.77187 293.052 8.91831C293.168 9.06475 293.371 9.13798 293.661 9.13798C293.816 9.13798 293.975 9.11357 294.14 9.06475C294.314 9.00618 294.459 8.93784 294.575 8.85974V10.4706C294.382 10.5682 294.169 10.6366 293.937 10.6756C293.714 10.7147 293.501 10.7342 293.298 10.7342Z" fill="#1D335A"/>
<path d="M296.279 3.73427C296.482 3.63664 296.724 3.53901 297.005 3.44138C297.285 3.34376 297.59 3.26077 297.919 3.19243C298.248 3.11433 298.577 3.05575 298.905 3.0167C299.244 2.96789 299.563 2.94348 299.863 2.94348C300.54 2.94348 301.101 3.03623 301.546 3.22172C302.001 3.39745 302.339 3.68057 302.562 4.07109C302.794 4.45183 302.91 4.95462 302.91 5.57944V10.4999H301.082V5.90161C301.082 5.71612 301.058 5.54039 301.009 5.37442C300.961 5.19869 300.879 5.04736 300.763 4.92045C300.647 4.78377 300.487 4.68126 300.284 4.61292C300.081 4.53482 299.82 4.49577 299.5 4.49577C299.259 4.49577 299.012 4.52017 298.76 4.56899C298.509 4.6178 298.296 4.68126 298.122 4.75936V10.4999H296.279V3.73427Z" fill="#1D335A"/>
<path d="M308.158 10.7195C307.433 10.7195 306.799 10.5731 306.257 10.2802C305.716 9.97758 305.295 9.53825 304.995 8.96224C304.695 8.38624 304.545 7.69308 304.545 6.88277C304.545 5.59408 304.85 4.61292 305.459 3.93929C306.078 3.25589 306.944 2.91419 308.057 2.91419C308.859 2.91419 309.503 3.08992 309.986 3.44138C310.48 3.79285 310.838 4.29563 311.06 4.94974C311.292 5.59408 311.404 6.36534 311.394 7.26352H305.735L305.59 6.00412H309.928L309.58 6.53131C309.561 5.76005 309.425 5.20845 309.174 4.87652C308.932 4.53482 308.54 4.36397 307.999 4.36397C307.67 4.36397 307.379 4.44207 307.128 4.59828C306.886 4.74472 306.697 4.99367 306.562 5.34513C306.436 5.69659 306.373 6.17985 306.373 6.7949C306.373 7.5564 306.552 8.14217 306.91 8.55221C307.268 8.95248 307.815 9.15262 308.55 9.15262C308.85 9.15262 309.135 9.12333 309.406 9.06475C309.687 8.99642 309.943 8.91831 310.175 8.83045C310.417 8.74258 310.62 8.6596 310.784 8.5815V10.2216C310.446 10.3681 310.059 10.4852 309.624 10.5731C309.198 10.6707 308.71 10.7195 308.158 10.7195Z" fill="#1D335A"/>
<path d="M313.014 10.4999V3.83678C313.149 3.74891 313.386 3.63176 313.725 3.48532C314.073 3.33888 314.474 3.21196 314.929 3.10457C315.384 2.98742 315.843 2.92884 316.307 2.92884C316.656 2.92884 316.931 2.95813 317.135 3.0167C317.347 3.06552 317.512 3.12898 317.628 3.20708V4.61292C317.434 4.58363 317.212 4.55922 316.96 4.5397C316.719 4.52017 316.467 4.51529 316.206 4.52505C315.954 4.52505 315.708 4.53482 315.466 4.55434C315.234 4.57387 315.031 4.59828 314.856 4.62756V10.4999H313.014Z" fill="#1D335A"/>
<path d="M326.281 10.7195C325.082 10.7195 324.182 10.3827 323.582 9.7091C322.982 9.03547 322.683 8.06407 322.683 6.7949C322.683 5.43788 322.987 4.45183 323.597 3.83678C324.216 3.22172 325.106 2.91419 326.266 2.91419C327.079 2.91419 327.756 3.06064 328.298 3.35352C328.84 3.63664 329.241 4.0662 329.502 4.64221C329.773 5.21821 329.909 5.93578 329.909 6.7949C329.909 8.06407 329.594 9.03547 328.965 9.7091C328.346 10.3827 327.451 10.7195 326.281 10.7195ZM326.281 9.19655C326.707 9.19655 327.05 9.09892 327.311 8.90367C327.582 8.70841 327.78 8.43505 327.906 8.08359C328.032 7.72237 328.095 7.29281 328.095 6.7949C328.095 6.23843 328.027 5.78446 327.892 5.43299C327.766 5.08153 327.568 4.82282 327.297 4.65685C327.036 4.49089 326.697 4.4079 326.281 4.4079C325.855 4.4079 325.512 4.49577 325.251 4.6715C324.99 4.84723 324.796 5.11082 324.67 5.46228C324.554 5.81374 324.496 6.25795 324.496 6.7949C324.496 7.57593 324.637 8.17146 324.917 8.5815C325.198 8.99153 325.652 9.19655 326.281 9.19655Z" fill="#1D335A"/>
<path d="M332.128 10.4999V4.58363H331.011V3.11921H332.143V2.88491C332.143 2.387 332.196 1.9672 332.302 1.62551C332.409 1.28381 332.549 1.00557 332.723 0.790786C332.907 0.566242 333.11 0.400274 333.333 0.292884C333.565 0.17573 333.807 0.0976273 334.058 0.058576C334.31 0.0195253 334.561 0 334.813 0C334.958 0 335.112 0.00976267 335.277 0.029288C335.441 0.0488133 335.582 0.0781016 335.698 0.117153V1.7573C335.611 1.6792 335.514 1.62062 335.408 1.58157C335.311 1.53276 335.18 1.50835 335.016 1.50835C334.88 1.50835 334.75 1.523 334.624 1.55228C334.498 1.57181 334.387 1.6255 334.29 1.71337C334.194 1.79147 334.116 1.90863 334.058 2.06483C334.01 2.22104 333.986 2.43094 333.986 2.69453V3.11921H335.698V4.58363H333.971V10.4999H332.128Z" fill="#1D335A"/>
<path d="M15.7674 55.1159C12.6075 55.1159 9.83449 54.5464 7.44842 53.4074C5.09459 52.2684 3.25667 50.4623 1.93465 47.989C0.644885 45.4832 0 42.2127 0 38.1774C0 34.2072 0.644885 30.9692 1.93465 28.4634C3.25667 25.9576 5.09459 24.119 7.44842 22.9474C9.83449 21.7434 12.6075 21.1413 15.7674 21.1413C17.7988 21.1413 19.7818 21.3529 21.7165 21.7759C23.6511 22.199 25.5052 22.7847 27.2786 23.5332V30.7089C25.344 29.7 23.5383 28.8865 21.8616 28.2682C20.2171 27.6499 18.5082 27.3407 16.7348 27.3407C14.8968 27.3407 13.3169 27.6661 11.9949 28.317C10.7051 28.9678 9.72164 30.0906 9.04451 31.6851C8.36738 33.2472 8.02882 35.395 8.02882 38.1286C8.02882 40.8296 8.36738 42.9774 9.04451 44.572C9.75388 46.1341 10.7373 47.2568 11.9949 47.9402C13.2524 48.6236 14.7195 48.9653 16.3962 48.9653C17.2668 48.9653 18.0729 48.9165 18.8145 48.8189C19.5884 48.6887 20.2655 48.4772 20.8459 48.1843V42.4242H15.5256V36.2737H28.6812V51.6012C26.6821 52.7077 24.5862 53.5701 22.3936 54.1884C20.2333 54.8067 18.0245 55.1159 15.7674 55.1159Z" fill="#1D335A"/>
<path d="M44.7415 55.1647C43.2583 55.1647 41.8557 55.0182 40.5336 54.7253C39.2439 54.465 38.0992 54.0257 37.0996 53.4074C36.1323 52.7565 35.3746 51.8941 34.8264 50.8202C34.2783 49.7138 34.0042 48.347 34.0042 46.7199C34.0042 45.1903 34.3105 43.8561 34.9232 42.7171C35.568 41.5781 36.5354 40.6995 37.8251 40.0812C39.1149 39.4628 40.7432 39.1537 42.7101 39.1537C43.8064 39.1537 44.8705 39.2676 45.9023 39.4954C46.9341 39.7232 47.8531 40.0323 48.6592 40.4229C49.4975 40.8134 50.1586 41.2364 50.6422 41.692L50.9324 45.2066C50.2875 44.8161 49.5137 44.507 48.6108 44.2792C47.708 44.0514 46.7407 43.9375 45.7089 43.9375C44.1289 43.9375 42.9681 44.1815 42.2265 44.6697C41.5171 45.1253 41.1624 45.8575 41.1624 46.8663C41.1624 47.4846 41.3398 48.0378 41.6944 48.526C42.0491 49.0141 42.5167 49.3883 43.0971 49.6487C43.7097 49.909 44.3385 50.0392 44.9834 50.0392C46.6278 50.0392 47.7725 49.9253 48.4174 49.6975C49.0945 49.4697 49.4331 49.0141 49.4331 48.3307V39.2513C49.4331 37.7543 48.9494 36.6804 47.9821 36.0296C47.047 35.3462 45.7088 35.0045 43.9677 35.0045C42.5489 35.0045 41.1141 35.2648 39.6631 35.7855C38.2443 36.2737 37.0835 36.8757 36.1807 37.5916V31.1482C37.019 30.6275 38.3088 30.1394 40.05 29.6838C41.8234 29.2282 43.8064 29.0004 45.9991 29.0004C46.7729 29.0004 47.6274 29.0655 48.5625 29.1956C49.4975 29.3258 50.4326 29.5699 51.3677 29.9278C52.3028 30.2533 53.1573 30.7414 53.9311 31.3923C54.7372 32.0431 55.3821 32.873 55.8658 33.8818C56.3494 34.8906 56.5913 36.1435 56.5913 37.6405L56.5429 49.307C56.5429 50.7063 56.0754 51.8453 55.1403 52.724C54.2052 53.5701 52.851 54.1884 51.0775 54.5789C49.3363 54.9694 47.2243 55.1647 44.7415 55.1647Z" fill="#1D335A"/>
<path d="M70.1467 54.4325H62.9885V20.4091H70.1467V54.4325Z" fill="#1D335A"/>
<path d="M85.9757 55.1647C84.4925 55.1647 83.0899 55.0182 81.7679 54.7253C80.4781 54.465 79.3334 54.0257 78.3338 53.4074C77.3665 52.7565 76.6088 51.8941 76.0606 50.8202C75.5125 49.7138 75.2384 48.347 75.2384 46.7199C75.2384 45.1903 75.5447 43.8561 76.1574 42.7171C76.8022 41.5781 77.7696 40.6995 79.0593 40.0812C80.3491 39.4628 81.9775 39.1537 83.9443 39.1537C85.0407 39.1537 86.1047 39.2676 87.1365 39.4954C88.1683 39.7232 89.0873 40.0323 89.8934 40.4229C90.7318 40.8134 91.3928 41.2364 91.8764 41.692L92.1666 45.2066C91.5217 44.8161 90.7479 44.507 89.845 44.2792C88.9422 44.0514 87.9749 43.9375 86.9431 43.9375C85.3631 43.9375 84.2023 44.1815 83.4607 44.6697C82.7513 45.1253 82.3966 45.8575 82.3966 46.8663C82.3966 47.4846 82.574 48.0378 82.9286 48.526C83.2833 49.0141 83.7509 49.3883 84.3313 49.6487C84.9439 49.909 85.5727 50.0392 86.2176 50.0392C87.862 50.0392 89.0067 49.9253 89.6516 49.6975C90.3287 49.4697 90.6673 49.0141 90.6673 48.3307V39.2513C90.6673 37.7543 90.1836 36.6804 89.2163 36.0296C88.2812 35.3462 86.9431 35.0045 85.2019 35.0045C83.7831 35.0045 82.3483 35.2648 80.8973 35.7855C79.4785 36.2737 78.3177 36.8757 77.4149 37.5916V31.1482C78.2532 30.6275 79.543 30.1394 81.2842 29.6838C83.0576 29.2282 85.0407 29.0004 87.2333 29.0004C88.0071 29.0004 88.8616 29.0655 89.7967 29.1956C90.7318 29.3258 91.6668 29.5699 92.6019 29.9278C93.537 30.2533 94.3915 30.7414 95.1653 31.3923C95.9714 32.0431 96.6163 32.873 97.1 33.8818C97.5837 34.8906 97.8255 36.1435 97.8255 37.6405L97.7771 49.307C97.7771 50.7063 97.3096 51.8453 96.3745 52.724C95.4394 53.5701 94.0852 54.1884 92.3117 54.5789C90.5705 54.9694 88.4585 55.1647 85.9757 55.1647Z" fill="#1D335A"/>
<path d="M114.235 55.4087C111.397 55.4087 109.285 54.7416 107.899 53.4074C106.512 52.0406 105.819 50.1206 105.819 47.6473V35.2974H102.24V29.7326H105.819V22.9474H113.364V29.7326H118.733V35.2974H113.364V46.7199C113.364 47.566 113.541 48.2005 113.896 48.6236C114.251 49.0141 114.847 49.2094 115.686 49.2094C116.169 49.2094 116.701 49.1117 117.282 48.9165C117.862 48.7212 118.346 48.4772 118.733 48.1843V54.4325C118.055 54.7904 117.314 55.0345 116.508 55.1647C115.734 55.3274 114.976 55.4087 114.235 55.4087Z" fill="#1D335A"/>
<path d="M133.634 55.1647C132.15 55.1647 130.748 55.0182 129.426 54.7253C128.136 54.465 126.991 54.0257 125.992 53.4074C125.024 52.7565 124.267 51.8941 123.718 50.8202C123.17 49.7138 122.896 48.347 122.896 46.7199C122.896 45.1903 123.203 43.8561 123.815 42.7171C124.46 41.5781 125.427 40.6995 126.717 40.0812C128.007 39.4628 129.635 39.1537 131.602 39.1537C132.699 39.1537 133.763 39.2676 134.794 39.4954C135.826 39.7232 136.745 40.0323 137.551 40.4229C138.39 40.8134 139.051 41.2364 139.534 41.692L139.824 45.2066C139.18 44.8161 138.406 44.507 137.503 44.2792C136.6 44.0514 135.633 43.9375 134.601 43.9375C133.021 43.9375 131.86 44.1815 131.119 44.6697C130.409 45.1253 130.054 45.8575 130.054 46.8663C130.054 47.4846 130.232 48.0378 130.587 48.526C130.941 49.0141 131.409 49.3883 131.989 49.6487C132.602 49.909 133.231 50.0392 133.875 50.0392C135.52 50.0392 136.665 49.9253 137.309 49.6975C137.987 49.4697 138.325 49.0141 138.325 48.3307V39.2513C138.325 37.7543 137.841 36.6804 136.874 36.0296C135.939 35.3462 134.601 35.0045 132.86 35.0045C131.441 35.0045 130.006 35.2648 128.555 35.7855C127.136 36.2737 125.976 36.8757 125.073 37.5916V31.1482C125.911 30.6275 127.201 30.1394 128.942 29.6838C130.715 29.2282 132.699 29.0004 134.891 29.0004C135.665 29.0004 136.519 29.0655 137.455 29.1956C138.39 29.3258 139.325 29.5699 140.26 29.9278C141.195 30.2533 142.049 30.7414 142.823 31.3923C143.629 32.0431 144.274 32.873 144.758 33.8818C145.242 34.8906 145.483 36.1435 145.483 37.6405L145.435 49.307C145.435 50.7063 144.967 51.8453 144.032 52.724C143.097 53.5701 141.743 54.1884 139.97 54.5789C138.228 54.9694 136.116 55.1647 133.634 55.1647Z" fill="#1D335A"/>
<path d="M159.136 55.1647C157.394 55.1647 155.895 54.9694 154.637 54.5789C153.412 54.2209 152.251 53.8141 151.155 53.3586V46.9639C151.832 47.4195 152.59 47.8914 153.428 48.3795C154.267 48.8351 155.186 49.2094 156.185 49.5022C157.217 49.7951 158.297 49.9416 159.426 49.9416C160.587 49.9416 161.393 49.7463 161.844 49.3558C162.328 48.9328 162.57 48.4283 162.57 47.8426C162.57 47.2893 162.328 46.85 161.844 46.5246C161.36 46.1666 160.732 45.8737 159.958 45.6459C159.184 45.4181 158.362 45.2066 157.491 45.0114C156.717 44.8486 155.943 44.6046 155.169 44.2792C154.396 43.9212 153.702 43.4493 153.09 42.8635C152.477 42.2778 151.977 41.5618 151.59 40.7157C151.236 39.8371 151.058 38.7794 151.058 37.5428C151.058 35.9482 151.365 34.6303 151.977 33.5889C152.59 32.515 153.396 31.6526 154.396 31.0018C155.395 30.3509 156.475 29.8953 157.636 29.635C158.797 29.3421 159.926 29.2119 161.022 29.2444C163.021 29.3095 164.601 29.5373 165.762 29.9278C166.955 30.2858 168.035 30.7577 169.002 31.3435V37.0547C167.906 36.4364 166.81 35.8669 165.713 35.3462C164.649 34.793 163.424 34.5164 162.037 34.5164C160.78 34.5164 159.877 34.7116 159.329 35.1021C158.781 35.4926 158.507 36.0133 158.507 36.6642C158.507 37.2825 158.684 37.7706 159.039 38.1286C159.426 38.4866 159.925 38.7794 160.538 39.0072C161.151 39.2025 161.828 39.3978 162.57 39.593C163.376 39.7883 164.198 40.0323 165.036 40.3252C165.907 40.5856 166.713 40.9761 167.455 41.4968C168.228 41.9849 168.841 42.6846 169.292 43.5958C169.776 44.4744 170.018 45.6459 170.018 47.1104C169.986 49.0955 169.454 50.6901 168.422 51.8941C167.39 53.0657 166.052 53.9118 164.407 54.4325C162.795 54.9206 161.038 55.1647 159.136 55.1647Z" fill="#1D335A"/>
<path d="M184.645 55.1647C183.162 55.1647 181.759 55.0182 180.437 54.7253C179.147 54.465 178.003 54.0257 177.003 53.4074C176.036 52.7565 175.278 51.8941 174.73 50.8202C174.182 49.7138 173.908 48.347 173.908 46.7199C173.908 45.1903 174.214 43.8561 174.827 42.7171C175.472 41.5781 176.439 40.6995 177.729 40.0812C179.018 39.4628 180.647 39.1537 182.614 39.1537C183.71 39.1537 184.774 39.2676 185.806 39.4954C186.838 39.7232 187.757 40.0323 188.563 40.4229C189.401 40.8134 190.062 41.2364 190.546 41.692L190.836 45.2066C190.191 44.8161 189.417 44.507 188.514 44.2792C187.611 44.0514 186.644 43.9375 185.612 43.9375C184.032 43.9375 182.872 44.1815 182.13 44.6697C181.421 45.1253 181.066 45.8575 181.066 46.8663C181.066 47.4846 181.243 48.0378 181.598 48.526C181.953 49.0141 182.42 49.3883 183.001 49.6487C183.613 49.909 184.242 50.0392 184.887 50.0392C186.531 50.0392 187.676 49.9253 188.321 49.6975C188.998 49.4697 189.337 49.0141 189.337 48.3307V39.2513C189.337 37.7543 188.853 36.6804 187.886 36.0296C186.95 35.3462 185.612 35.0045 183.871 35.0045C182.452 35.0045 181.018 35.2648 179.567 35.7855C178.148 36.2737 176.987 36.8757 176.084 37.5916V31.1482C176.922 30.6275 178.212 30.1394 179.953 29.6838C181.727 29.2282 183.71 29.0004 185.903 29.0004C186.676 29.0004 187.531 29.0655 188.466 29.1956C189.401 29.3258 190.336 29.5699 191.271 29.9278C192.206 30.2533 193.061 30.7414 193.835 31.3923C194.641 32.0431 195.286 32.873 195.769 33.8818C196.253 34.8906 196.495 36.1435 196.495 37.6405L196.446 49.307C196.446 50.7063 195.979 51.8453 195.044 52.724C194.109 53.5701 192.754 54.1884 190.981 54.5789C189.24 54.9694 187.128 55.1647 184.645 55.1647Z" fill="#1D335A"/>
<path d="M202.892 54.4325V32.3197C203.343 31.9292 204.149 31.4899 205.31 31.0018C206.471 30.4811 207.793 30.0255 209.276 29.635C210.792 29.2119 212.307 29.0004 213.823 29.0004C215.338 29.0004 216.531 29.1143 217.402 29.3421C218.272 29.5699 218.933 29.8628 219.385 30.2207V35.5415C218.837 35.4113 218.143 35.3137 217.305 35.2486C216.467 35.1835 215.596 35.1509 214.693 35.1509C213.79 35.1184 212.936 35.1184 212.13 35.1509C211.324 35.1835 210.647 35.2486 210.099 35.3462V54.4325H202.892Z" fill="#1D335A"/>
<path d="M233.011 55.1647C231.528 55.1647 230.125 55.0182 228.803 54.7253C227.514 54.465 226.369 54.0257 225.369 53.4074C224.402 52.7565 223.644 51.8941 223.096 50.8202C222.548 49.7138 222.274 48.347 222.274 46.7199C222.274 45.1903 222.58 43.8561 223.193 42.7171C223.838 41.5781 224.805 40.6995 226.095 40.0812C227.385 39.4628 229.013 39.1537 230.98 39.1537C232.076 39.1537 233.14 39.2676 234.172 39.4954C235.204 39.7232 236.123 40.0323 236.929 40.4229C237.767 40.8134 238.428 41.2364 238.912 41.692L239.202 45.2066C238.557 44.8161 237.784 44.507 236.881 44.2792C235.978 44.0514 235.01 43.9375 233.979 43.9375C232.399 43.9375 231.238 44.1815 230.496 44.6697C229.787 45.1253 229.432 45.8575 229.432 46.8663C229.432 47.4846 229.61 48.0378 229.964 48.526C230.319 49.0141 230.786 49.3883 231.367 49.6487C231.98 49.909 232.608 50.0392 233.253 50.0392C234.898 50.0392 236.042 49.9253 236.687 49.6975C237.364 49.4697 237.703 49.0141 237.703 48.3307V39.2513C237.703 37.7543 237.219 36.6804 236.252 36.0296C235.317 35.3462 233.979 35.0045 232.237 35.0045C230.819 35.0045 229.384 35.2648 227.933 35.7855C226.514 36.2737 225.353 36.8757 224.45 37.5916V31.1482C225.289 30.6275 226.579 30.1394 228.32 29.6838C230.093 29.2282 232.076 29.0004 234.269 29.0004C235.043 29.0004 235.897 29.0655 236.832 29.1956C237.767 29.3258 238.702 29.5699 239.638 29.9278C240.573 30.2533 241.427 30.7414 242.201 31.3923C243.007 32.0431 243.652 32.873 244.136 33.8818C244.619 34.8906 244.861 36.1435 244.861 37.6405L244.813 49.307C244.813 50.7063 244.345 51.8453 243.41 52.724C242.475 53.5701 241.121 54.1884 239.347 54.5789C237.606 54.9694 235.494 55.1647 233.011 55.1647Z" fill="#1D335A"/>
<path d="M255.114 64C254.308 64 253.518 63.9186 252.744 63.7559C251.971 63.5932 251.31 63.3817 250.761 63.1213V57.2149C251.277 57.4101 251.761 57.5403 252.212 57.6054C252.664 57.703 253.131 57.7518 253.615 57.7518C254.421 57.7518 255.114 57.5566 255.695 57.166C256.307 56.8081 256.807 56.1735 257.194 55.2623C257.581 54.3836 257.887 53.1796 258.113 51.6501L258.258 55.7993L247.763 29.7326H256.033L261.595 47.0616H260.87L266.384 29.7326H274.122L264.497 54.823C263.627 57.101 262.676 58.9071 261.644 60.2413C260.644 61.5756 259.596 62.5356 258.5 63.1213C257.404 63.7071 256.275 64 255.114 64Z" fill="#1D335A"/>
<path d="M302.907 55.1159C301.263 55.1159 299.779 55.0345 298.457 54.8718C297.135 54.7091 295.91 54.465 294.782 54.1396C293.653 53.8141 292.557 53.3911 291.493 52.8704V45.3531C292.976 46.5571 294.653 47.4683 296.523 48.0866C298.393 48.705 300.166 49.0141 301.843 49.0141C303.326 49.0141 304.455 48.7375 305.229 48.1843C306.035 47.5985 306.438 46.7199 306.438 45.5483C306.438 44.6697 306.067 43.97 305.325 43.4493C304.616 42.8961 303.665 42.4242 302.472 42.0337C301.279 41.6107 299.941 41.1388 298.457 40.6181C297.522 40.3252 296.603 39.951 295.701 39.4954C294.798 39.0398 293.992 38.4703 293.282 37.7869C292.573 37.071 292.009 36.2086 291.589 35.1998C291.17 34.1909 290.961 32.9543 290.961 31.4899C290.961 30.1556 291.202 28.8702 291.686 27.6336C292.17 26.397 292.911 25.2905 293.911 24.3142C294.943 23.338 296.249 22.5732 297.829 22.02C299.409 21.4342 301.263 21.1413 303.391 21.1413C304.713 21.1413 305.874 21.2227 306.873 21.3854C307.905 21.5481 308.888 21.7922 309.824 22.1176C310.759 22.4105 311.71 22.801 312.677 23.2891V30.9041C311.936 30.2858 311.097 29.7163 310.162 29.1956C309.259 28.6424 308.308 28.1868 307.308 27.8288C306.309 27.4709 305.261 27.2756 304.165 27.2431C303.197 27.2105 302.311 27.3082 301.505 27.536C300.698 27.7638 300.07 28.138 299.618 28.6587C299.167 29.1468 298.941 29.7814 298.941 30.5624C298.941 31.4736 299.215 32.1896 299.763 32.7102C300.311 33.2309 301.069 33.6702 302.037 34.0282C303.004 34.3536 304.084 34.7116 305.277 35.1021C306.599 35.4926 307.808 35.932 308.905 36.4201C310.033 36.8757 311.017 37.4615 311.855 38.1774C312.693 38.8933 313.338 39.772 313.79 40.8134C314.241 41.8547 314.467 43.1076 314.467 44.572C314.467 46.5246 314.015 48.3144 313.112 49.9416C312.21 51.5362 310.904 52.8053 309.195 53.7491C307.486 54.6603 305.39 55.1159 302.907 55.1159Z" fill="#1D335A"/>
<path d="M319.407 54.4325V47.5497H326.42V54.4325H319.407Z" fill="#1D335A"/>
<path d="M340.19 44.6697L337.53 39.6418L350.395 21.8735H360.262L340.19 44.6697ZM332.693 54.4325V21.8735H340.529V54.4325H332.693ZM347.203 34.2723L361.278 54.4325H351.459L341.157 39.3489L347.203 34.2723Z" fill="#1D335A"/>
<path d="M364.987 54.4325V47.5497H372V54.4325H364.987Z" fill="#1D335A"/>
</svg>
