<svg width="372" height="64" viewBox="0 0 372 64" fill="none" xmlns="http://www.w3.org/2000/svg">
<path d="M41.946 10.6757C40.9884 10.6757 40.1661 10.4951 39.4793 10.1339C38.7925 9.76292 38.2653 9.20644 37.8977 8.46447C37.5302 7.71273 37.3464 6.76574 37.3464 5.62349C37.3464 3.95405 37.743 2.69465 38.5362 1.84529C39.3391 0.986164 40.4757 0.556601 41.946 0.556601C42.9133 0.556601 43.7404 0.742094 44.4272 1.11308C45.114 1.48407 45.6412 2.04055 46.0088 2.78252C46.386 3.52449 46.5747 4.47148 46.5747 5.62349C46.5747 7.28317 46.1732 8.54257 45.3703 9.40169C44.5771 10.2511 43.4357 10.6757 41.946 10.6757ZM41.946 9.02094C42.5264 9.02094 43.0052 8.90867 43.3825 8.68413C43.7694 8.44982 44.0596 8.08372 44.2531 7.58581C44.4465 7.08791 44.5433 6.42892 44.5433 5.60885C44.5433 4.78877 44.4465 4.13467 44.2531 3.64653C44.0596 3.14862 43.7694 2.7874 43.3825 2.56286C43.0052 2.33831 42.5264 2.22604 41.946 2.22604C41.385 2.22604 40.911 2.34319 40.524 2.5775C40.1468 2.80204 39.8614 3.16327 39.6679 3.66117C39.4745 4.14931 39.3778 4.80342 39.3778 5.62349C39.3778 6.44357 39.4745 7.10255 39.6679 7.60046C39.8614 8.09836 40.1468 8.45958 40.524 8.68413C40.911 8.90867 41.385 9.02094 41.946 9.02094Z" fill="white"/>
<path d="M48.8592 10.5V4.58375H47.7419V3.11933H48.8737V2.88503C48.8737 2.38712 48.9269 1.96732 49.0333 1.62563C49.1397 1.28393 49.28 1.00569 49.4541 0.790908C49.6379 0.566364 49.841 0.400396 50.0635 0.293006C50.2957 0.175852 50.5375 0.0977493 50.789 0.0586981C51.0405 0.0196474 51.292 0.00012207 51.5435 0.00012207C51.6886 0.00012207 51.8434 0.00988474 52.0078 0.0294101C52.1723 0.0489354 52.3125 0.0782237 52.4286 0.117275V1.75743C52.3416 1.67932 52.2448 1.62075 52.1384 1.58169C52.0417 1.53288 51.9111 1.50847 51.7467 1.50847C51.6112 1.50847 51.4806 1.52312 51.3549 1.55241C51.2291 1.57193 51.1179 1.62563 51.0212 1.71349C50.9244 1.79159 50.847 1.90875 50.789 2.06495C50.7406 2.22116 50.7164 2.43106 50.7164 2.69465V3.11933H52.4286V4.58375H50.7019V10.5H48.8592Z" fill="white"/>
<path d="M54.4846 10.5V4.58375H53.3673V3.11933H54.4991V2.88503C54.4991 2.38712 54.5523 1.96732 54.6587 1.62563C54.7651 1.28393 54.9054 1.00569 55.0795 0.790908C55.2633 0.566364 55.4664 0.400396 55.6889 0.293006C55.9211 0.175852 56.1629 0.0977493 56.4144 0.0586981C56.6659 0.0196474 56.9174 0.00012207 57.1689 0.00012207C57.314 0.00012207 57.4688 0.00988474 57.6333 0.0294101C57.7977 0.0489354 57.938 0.0782237 58.054 0.117275V1.75743C57.967 1.67932 57.8703 1.62075 57.7638 1.58169C57.6671 1.53288 57.5365 1.50847 57.3721 1.50847C57.2367 1.50847 57.1061 1.52312 56.9803 1.55241C56.8546 1.57193 56.7433 1.62563 56.6466 1.71349C56.5498 1.79159 56.4725 1.90875 56.4144 2.06495C56.3661 2.22116 56.3419 2.43106 56.3419 2.69465V3.11933H58.054V4.58375H56.3274V10.5H54.4846ZM59.4325 10.5V3.19256H61.2752L61.2898 10.5H59.4325ZM59.389 2.02102V0.498024H61.3188V2.02102H59.389Z" fill="white"/>
<path d="M66.6783 10.6611C66.1946 10.6611 65.7303 10.5928 65.2853 10.4561C64.8403 10.3194 64.4437 10.0997 64.0955 9.79709C63.7473 9.49444 63.4716 9.10393 63.2684 8.62555C63.0653 8.14717 62.9637 7.56629 62.9637 6.88289C62.9637 6.17021 63.0605 5.56491 63.2539 5.06701C63.4474 4.56911 63.7134 4.16395 64.052 3.85154C64.3905 3.52937 64.7823 3.29995 65.2273 3.16327C65.6819 3.01683 66.1607 2.9436 66.6637 2.9436C67.0507 2.9436 67.4473 2.98266 67.8536 3.06076C68.2598 3.13886 68.6226 3.25113 68.9418 3.39757V5.00844C68.6129 4.86199 68.284 4.74484 67.9551 4.65697C67.6262 4.55935 67.2877 4.51053 66.9394 4.51053C66.2623 4.51053 65.7351 4.68138 65.3578 5.02308C64.9806 5.36478 64.792 5.92614 64.792 6.70716C64.792 7.50771 64.9613 8.10324 65.2998 8.49375C65.648 8.88426 66.2188 9.07952 67.012 9.07952C67.3699 9.07952 67.7181 9.02583 68.0567 8.91844C68.3953 8.80128 68.6951 8.67437 68.9563 8.53769V10.1632C68.6177 10.3292 68.2647 10.4512 67.8971 10.5293C67.5295 10.6172 67.1232 10.6611 66.6783 10.6611Z" fill="white"/>
<path d="M70.6398 10.5V3.19256H72.4826L72.4971 10.5H70.6398ZM70.5963 2.02102V0.498024H72.5261V2.02102H70.5963Z" fill="white"/>
<path d="M77.2917 10.7197C76.8854 10.7197 76.4985 10.6806 76.1309 10.6025C75.7633 10.5244 75.4344 10.3975 75.1442 10.2218C74.854 10.0363 74.6219 9.78732 74.4477 9.47491C74.2833 9.15274 74.2011 8.75247 74.2011 8.27409C74.2011 7.77619 74.3026 7.35639 74.5058 7.01469C74.7089 6.66323 75.004 6.39963 75.3909 6.2239C75.7875 6.03841 76.2712 5.94566 76.8419 5.94566C77.1901 5.94566 77.5142 5.97983 77.814 6.04817C78.1139 6.10675 78.3848 6.18973 78.6266 6.29712C78.8684 6.40451 79.0667 6.52167 79.2215 6.64858L79.3521 7.68832C79.149 7.55164 78.8878 7.44425 78.5686 7.36615C78.259 7.27829 77.9205 7.23435 77.5529 7.23435C77.0402 7.23435 76.6581 7.31734 76.4066 7.4833C76.1551 7.64927 76.0293 7.90799 76.0293 8.25945C76.0293 8.50352 76.097 8.70853 76.2325 8.8745C76.3679 9.03071 76.542 9.15274 76.7548 9.24061C76.9676 9.31871 77.1901 9.35776 77.4223 9.35776C77.9543 9.35776 78.3364 9.32359 78.5686 9.25525C78.8104 9.17715 78.9313 9.01606 78.9313 8.77199V5.8578C78.9313 5.37942 78.7814 5.03284 78.4815 4.81806C78.1816 4.59352 77.7608 4.48124 77.2191 4.48124C76.8032 4.48124 76.3776 4.55447 75.9423 4.70091C75.507 4.83759 75.1539 5.0182 74.883 5.24274V3.55866C75.1442 3.39269 75.536 3.24625 76.0583 3.11933C76.5807 2.99242 77.1418 2.92896 77.7415 2.92896C77.993 2.92896 78.259 2.95337 78.5395 3.00218C78.8201 3.051 79.0861 3.1291 79.3376 3.23649C79.5988 3.34388 79.8358 3.4952 80.0486 3.69046C80.2614 3.87595 80.4307 4.11514 80.5564 4.40802C80.6822 4.69114 80.745 5.03772 80.745 5.44776V8.94772C80.745 9.40657 80.5999 9.7678 80.3097 10.0314C80.0196 10.2852 79.6181 10.461 79.1054 10.5586C78.5927 10.666 77.9882 10.7197 77.2917 10.7197Z" fill="white"/>
<path d="M84.6106 10.5H82.7823V0.336939H84.6106V10.5Z" fill="white"/>
<path d="M92.8797 10.5L90.0503 0.732331H92.1978L94.2001 8.68413H93.8374L96.1445 0.732331H97.7406L100.091 8.80128H99.6704L101.687 0.732331H103.835L101.005 10.5H99.0465L96.7394 3.00218H97.1457L94.8386 10.5H92.8797Z" fill="white"/>
<path d="M107.712 10.7197C106.986 10.7197 106.353 10.5732 105.811 10.2803C105.269 9.9777 104.848 9.53837 104.549 8.96237C104.249 8.38636 104.099 7.6932 104.099 6.88289C104.099 5.5942 104.403 4.61304 105.013 3.93941C105.632 3.25601 106.498 2.91432 107.61 2.91432C108.413 2.91432 109.056 3.09005 109.54 3.44151C110.033 3.79297 110.391 4.29575 110.614 4.94986C110.846 5.5942 110.957 6.36546 110.947 7.26364H105.289L105.143 6.00424H109.482L109.134 6.53143C109.114 5.76017 108.979 5.20857 108.727 4.87664C108.486 4.53494 108.094 4.36409 107.552 4.36409C107.223 4.36409 106.933 4.44219 106.682 4.5984C106.44 4.74484 106.251 4.99379 106.116 5.34525C105.99 5.69671 105.927 6.17997 105.927 6.79503C105.927 7.55652 106.106 8.14229 106.464 8.55233C106.822 8.9526 107.368 9.15274 108.103 9.15274C108.403 9.15274 108.689 9.12345 108.96 9.06488C109.24 8.99654 109.496 8.91844 109.729 8.83057C109.97 8.7427 110.174 8.65972 110.338 8.58162V10.2218C109.999 10.3682 109.613 10.4854 109.177 10.5732C108.752 10.6709 108.263 10.7197 107.712 10.7197Z" fill="white"/>
<path d="M115.789 10.7197C115.382 10.7197 114.986 10.6953 114.599 10.6464C114.221 10.5976 113.878 10.5098 113.568 10.3829C113.269 10.2462 113.027 10.0607 112.843 9.82638C112.659 9.59207 112.567 9.28942 112.567 8.91844V0.278362H114.381V4.27623L113.975 3.69046C114.159 3.51473 114.386 3.37317 114.657 3.26578C114.928 3.15839 115.203 3.08028 115.484 3.03147C115.774 2.97289 116.016 2.9436 116.209 2.9436C117.302 2.9436 118.125 3.27554 118.676 3.93941C119.237 4.59352 119.518 5.53075 119.518 6.75109C119.518 7.53212 119.416 8.18134 119.213 8.69877C119.019 9.20644 118.749 9.60671 118.4 9.8996C118.052 10.1925 117.655 10.4024 117.21 10.5293C116.766 10.6562 116.292 10.7197 115.789 10.7197ZM115.73 9.15274C116.233 9.15274 116.625 9.05023 116.906 8.84521C117.186 8.64019 117.385 8.36684 117.501 8.02514C117.617 7.68344 117.675 7.29293 117.675 6.8536C117.675 6.29712 117.602 5.84315 117.457 5.49169C117.312 5.14023 117.104 4.88152 116.833 4.71555C116.562 4.53982 116.229 4.45196 115.832 4.45196C115.61 4.45196 115.363 4.48124 115.092 4.53982C114.831 4.5984 114.594 4.69114 114.381 4.81806V8.44982C114.381 8.63531 114.444 8.78176 114.57 8.88915C114.705 8.98677 114.874 9.05511 115.078 9.09416C115.29 9.13322 115.508 9.15274 115.73 9.15274Z" fill="white"/>
<path d="M128.05 10.6172C127.518 10.6172 127.02 10.5488 126.556 10.4121C126.101 10.2657 125.68 10.0949 125.294 9.8996V8.15694C125.68 8.38148 126.087 8.5865 126.512 8.77199C126.948 8.94772 127.422 9.03559 127.934 9.03559C128.582 9.03559 129.085 8.91844 129.443 8.68413C129.801 8.44982 129.98 8.10812 129.98 7.65903C129.98 7.20018 129.816 6.83896 129.487 6.57536C129.158 6.31177 128.621 6.17997 127.876 6.17997H126.57V4.62769H127.92C128.462 4.62769 128.863 4.5203 129.124 4.30551C129.385 4.08097 129.516 3.79297 129.516 3.44151C129.516 3.14862 129.439 2.91432 129.284 2.73859C129.139 2.55309 128.931 2.42129 128.66 2.34319C128.389 2.25533 128.075 2.21139 127.717 2.21139C127.359 2.21139 127.006 2.25533 126.657 2.34319C126.309 2.43106 125.922 2.5775 125.497 2.78252V1.1863C125.835 1.02033 126.208 0.883654 126.614 0.776264C127.03 0.65911 127.465 0.600533 127.92 0.600533C128.413 0.600533 128.863 0.65911 129.269 0.776264C129.685 0.893418 130.043 1.06915 130.343 1.30345C130.643 1.528 130.875 1.80624 131.039 2.13817C131.204 2.46035 131.286 2.83133 131.286 3.25113C131.286 3.55378 131.233 3.82226 131.126 4.05656C131.02 4.29087 130.89 4.49101 130.735 4.65697C130.58 4.82294 130.425 4.95474 130.27 5.05237C130.125 5.14023 130.004 5.19393 129.908 5.21345C130.053 5.24274 130.227 5.32084 130.43 5.44776C130.633 5.57468 130.831 5.74553 131.025 5.96031C131.228 6.16533 131.397 6.41916 131.533 6.72181C131.668 7.01469 131.736 7.35151 131.736 7.73226C131.736 8.20087 131.644 8.61579 131.46 8.97701C131.276 9.32847 131.02 9.62624 130.691 9.87031C130.362 10.1144 129.975 10.2999 129.53 10.4268C129.085 10.5537 128.592 10.6172 128.05 10.6172Z" fill="white"/>
<path d="M133.721 10.5V8.61091H135.636V10.5H133.721Z" fill="white"/>
<path d="M141.364 10.6757C139.971 10.6757 138.941 10.2559 138.273 9.41634C137.606 8.57674 137.272 7.31734 137.272 5.63814C137.272 3.95894 137.606 2.69953 138.273 1.85993C138.941 1.01057 139.971 0.585889 141.364 0.585889C142.766 0.585889 143.801 1.01057 144.469 1.85993C145.136 2.69953 145.47 3.95894 145.47 5.63814C145.47 7.31734 145.136 8.57674 144.469 9.41634C143.801 10.2559 142.766 10.6757 141.364 10.6757ZM141.364 9.03559C141.615 9.03559 141.867 8.99654 142.118 8.91844C142.37 8.84033 142.597 8.68901 142.8 8.46447C143.003 8.23016 143.163 7.88846 143.279 7.43937C143.405 6.98052 143.468 6.38011 143.468 5.63814C143.468 4.8864 143.405 4.28599 143.279 3.8369C143.163 3.38781 143.003 3.05099 142.8 2.82645C142.597 2.59214 142.37 2.43594 142.118 2.35784C141.867 2.26997 141.615 2.22604 141.364 2.22604C141.112 2.22604 140.861 2.26997 140.609 2.35784C140.367 2.43594 140.145 2.59214 139.942 2.82645C139.739 3.05099 139.574 3.38781 139.449 3.8369C139.332 4.28599 139.274 4.8864 139.274 5.63814C139.274 6.38011 139.332 6.98052 139.449 7.43937C139.574 7.88846 139.739 8.23016 139.942 8.46447C140.145 8.68901 140.367 8.84033 140.609 8.91844C140.861 8.99654 141.112 9.03559 141.364 9.03559Z" fill="white"/>
<path d="M147.228 12.1402L148.302 9.2699H149.898L148.592 12.1402H147.228Z" fill="white"/>
<path d="M156.24 10.5V0.732331H158.272L161.667 5.65278L160.55 5.74065L164.105 0.732331H166.078V10.5H164.119V2.3139L164.569 2.8411L161.072 7.62975L157.677 2.82645L158.141 2.41641V10.5H156.24Z" fill="white"/>
<path d="M171.405 10.7197C170.68 10.7197 170.046 10.5732 169.504 10.2803C168.963 9.9777 168.542 9.53837 168.242 8.96237C167.942 8.38636 167.792 7.6932 167.792 6.88289C167.792 5.5942 168.097 4.61304 168.706 3.93941C169.325 3.25601 170.191 2.91432 171.304 2.91432C172.106 2.91432 172.75 3.09005 173.233 3.44151C173.727 3.79297 174.085 4.29575 174.307 4.94986C174.539 5.5942 174.65 6.36546 174.641 7.26364H168.982L168.837 6.00424H173.175L172.827 6.53143C172.808 5.76017 172.672 5.20857 172.421 4.87664C172.179 4.53494 171.787 4.36409 171.245 4.36409C170.917 4.36409 170.626 4.44219 170.375 4.5984C170.133 4.74484 169.944 4.99379 169.809 5.34525C169.683 5.69671 169.62 6.17997 169.62 6.79503C169.62 7.55652 169.799 8.14229 170.157 8.55233C170.515 8.9526 171.062 9.15274 171.797 9.15274C172.097 9.15274 172.382 9.12345 172.653 9.06488C172.933 8.99654 173.19 8.91844 173.422 8.83057C173.664 8.7427 173.867 8.65972 174.031 8.58162V10.2218C173.693 10.3682 173.306 10.4854 172.871 10.5732C172.445 10.6709 171.956 10.7197 171.405 10.7197Z" fill="white"/>
<path d="M179.061 10.7343C178.307 10.7343 177.731 10.5488 177.334 10.1778C176.938 9.79709 176.74 9.25037 176.74 8.53769V4.58375H175.608V3.11933H176.74V1.08379H178.64V3.11933H180.338V4.58375H178.64V8.2448C178.64 8.54745 178.698 8.77199 178.814 8.91844C178.931 9.06488 179.134 9.1381 179.424 9.1381C179.579 9.1381 179.738 9.11369 179.903 9.06488C180.077 9.0063 180.222 8.93796 180.338 8.85986V10.4707C180.145 10.5683 179.932 10.6367 179.7 10.6757C179.477 10.7148 179.264 10.7343 179.061 10.7343Z" fill="white"/>
<path d="M184.77 10.7197C184.364 10.7197 183.977 10.6806 183.609 10.6025C183.241 10.5244 182.913 10.3975 182.622 10.2218C182.332 10.0363 182.1 9.78732 181.926 9.47491C181.761 9.15274 181.679 8.75247 181.679 8.27409C181.679 7.77619 181.781 7.35639 181.984 7.01469C182.187 6.66323 182.482 6.39963 182.869 6.2239C183.266 6.03841 183.749 5.94566 184.32 5.94566C184.668 5.94566 184.992 5.97983 185.292 6.04817C185.592 6.10675 185.863 6.18973 186.105 6.29712C186.347 6.40451 186.545 6.52167 186.7 6.64858L186.83 7.68832C186.627 7.55164 186.366 7.44425 186.047 7.36615C185.737 7.27829 185.399 7.23435 185.031 7.23435C184.518 7.23435 184.136 7.31734 183.885 7.4833C183.633 7.64927 183.507 7.90799 183.507 8.25945C183.507 8.50352 183.575 8.70853 183.711 8.8745C183.846 9.03071 184.02 9.15274 184.233 9.24061C184.446 9.31871 184.668 9.35776 184.9 9.35776C185.432 9.35776 185.815 9.32359 186.047 9.25525C186.289 9.17715 186.409 9.01606 186.409 8.77199V5.8578C186.409 5.37942 186.26 5.03284 185.96 4.81806C185.66 4.59352 185.239 4.48124 184.697 4.48124C184.281 4.48124 183.856 4.55447 183.42 4.70091C182.985 4.83759 182.632 5.0182 182.361 5.24274V3.55866C182.622 3.39269 183.014 3.24625 183.536 3.11933C184.059 2.99242 184.62 2.92896 185.22 2.92896C185.471 2.92896 185.737 2.95337 186.018 3.00218C186.298 3.051 186.564 3.1291 186.816 3.23649C187.077 3.34388 187.314 3.4952 187.527 3.69046C187.74 3.87595 187.909 4.11514 188.035 4.40802C188.16 4.69114 188.223 5.03772 188.223 5.44776V8.94772C188.223 9.40657 188.078 9.7678 187.788 10.0314C187.498 10.2852 187.096 10.461 186.584 10.5586C186.071 10.666 185.466 10.7197 184.77 10.7197Z" fill="white"/>
<path d="M192.316 10.5L189.254 3.11933H191.228L193.593 9.03559L193.143 9.06488L195.305 3.11933H197.22L194.159 10.5H192.316Z" fill="white"/>
<path d="M201.403 10.7197C200.677 10.7197 200.044 10.5732 199.502 10.2803C198.96 9.9777 198.539 9.53837 198.239 8.96237C197.94 8.38636 197.79 7.6932 197.79 6.88289C197.79 5.5942 198.094 4.61304 198.704 3.93941C199.323 3.25601 200.189 2.91432 201.301 2.91432C202.104 2.91432 202.747 3.09005 203.231 3.44151C203.724 3.79297 204.082 4.29575 204.305 4.94986C204.537 5.5942 204.648 6.36546 204.638 7.26364H198.979L198.834 6.00424H203.173L202.825 6.53143C202.805 5.76017 202.67 5.20857 202.418 4.87664C202.176 4.53494 201.785 4.36409 201.243 4.36409C200.914 4.36409 200.624 4.44219 200.372 4.5984C200.131 4.74484 199.942 4.99379 199.807 5.34525C199.681 5.69671 199.618 6.17997 199.618 6.79503C199.618 7.55652 199.797 8.14229 200.155 8.55233C200.513 8.9526 201.059 9.15274 201.794 9.15274C202.094 9.15274 202.38 9.12345 202.65 9.06488C202.931 8.99654 203.187 8.91844 203.42 8.83057C203.661 8.7427 203.864 8.65972 204.029 8.58162V10.2218C203.69 10.3682 203.303 10.4854 202.868 10.5732C202.442 10.6709 201.954 10.7197 201.403 10.7197Z" fill="white"/>
<path d="M206.258 10.5V3.8369C206.394 3.74904 206.631 3.63188 206.969 3.48544C207.317 3.339 207.719 3.21208 208.174 3.10469C208.628 2.98754 209.088 2.92896 209.552 2.92896C209.9 2.92896 210.176 2.95825 210.379 3.01683C210.592 3.06564 210.756 3.1291 210.872 3.2072V4.61304C210.679 4.58375 210.456 4.55935 210.205 4.53982C209.963 4.5203 209.712 4.51541 209.45 4.52518C209.199 4.52518 208.952 4.53494 208.71 4.55447C208.478 4.57399 208.275 4.5984 208.101 4.62769V10.5H206.258Z" fill="white"/>
<path d="M214.329 10.7197C213.806 10.7197 213.361 10.6611 212.994 10.5439C212.626 10.4365 212.273 10.3048 211.935 10.1485V8.47911C212.157 8.62555 212.389 8.76711 212.631 8.90379C212.883 9.03071 213.149 9.13322 213.429 9.21132C213.719 9.28942 214.029 9.32847 214.358 9.32847C214.745 9.32847 215.03 9.25525 215.214 9.10881C215.407 8.95261 215.504 8.76711 215.504 8.55233C215.504 8.34731 215.431 8.19111 215.286 8.08372C215.141 7.96656 214.953 7.86893 214.72 7.79083C214.488 7.71273 214.242 7.63463 213.98 7.55652C213.739 7.49795 213.492 7.41985 213.24 7.32222C212.999 7.22459 212.776 7.09279 212.573 6.92682C212.37 6.76086 212.205 6.55096 212.08 6.29712C211.964 6.03353 211.906 5.71624 211.906 5.34525C211.906 4.90593 211.993 4.53494 212.167 4.23229C212.341 3.92965 212.568 3.68558 212.849 3.50008C213.129 3.31459 213.439 3.18279 213.777 3.10469C214.116 3.01683 214.445 2.97289 214.764 2.97289C215.315 2.99242 215.76 3.06076 216.099 3.17791C216.437 3.2853 216.757 3.42686 217.057 3.60259L217.071 5.11094C216.732 4.92545 216.404 4.75948 216.084 4.61304C215.765 4.45684 215.402 4.37874 214.996 4.37874C214.619 4.37874 214.324 4.44707 214.111 4.58375C213.908 4.71067 213.806 4.89128 213.806 5.12559C213.806 5.33061 213.869 5.49657 213.995 5.62349C214.121 5.75041 214.285 5.84804 214.488 5.91638C214.691 5.98471 214.914 6.05305 215.156 6.12139C215.398 6.18973 215.649 6.26784 215.91 6.3557C216.171 6.4338 216.413 6.55096 216.636 6.70716C216.858 6.86337 217.037 7.07327 217.173 7.33686C217.318 7.59069 217.39 7.93239 217.39 8.36196C217.381 8.9282 217.231 9.38705 216.94 9.73851C216.65 10.0802 216.268 10.3292 215.794 10.4854C215.33 10.6416 214.841 10.7197 214.329 10.7197Z" fill="white"/>
<path d="M222.275 10.7197C221.549 10.7197 220.916 10.5732 220.374 10.2803C219.832 9.9777 219.411 9.53837 219.112 8.96237C218.812 8.38636 218.662 7.6932 218.662 6.88289C218.662 5.5942 218.967 4.61304 219.576 3.93941C220.195 3.25601 221.061 2.91432 222.173 2.91432C222.976 2.91432 223.619 3.09005 224.103 3.44151C224.596 3.79297 224.954 4.29575 225.177 4.94986C225.409 5.5942 225.52 6.36546 225.51 7.26364H219.852L219.707 6.00424H224.045L223.697 6.53143C223.677 5.76017 223.542 5.20857 223.29 4.87664C223.049 4.53494 222.657 4.36409 222.115 4.36409C221.786 4.36409 221.496 4.44219 221.245 4.5984C221.003 4.74484 220.814 4.99379 220.679 5.34525C220.553 5.69671 220.49 6.17997 220.49 6.79503C220.49 7.55652 220.669 8.14229 221.027 8.55233C221.385 8.9526 221.931 9.15274 222.667 9.15274C222.966 9.15274 223.252 9.12345 223.523 9.06488C223.803 8.99654 224.06 8.91844 224.292 8.83057C224.533 8.7427 224.737 8.65972 224.901 8.58162V10.2218C224.563 10.3682 224.176 10.4854 223.74 10.5732C223.315 10.6709 222.826 10.7197 222.275 10.7197Z" fill="white"/>
<path d="M227.188 12.1402L228.262 9.2699H229.858L228.552 12.1402H227.188Z" fill="white"/>
<path d="M238.174 7.14649V10.5H236.201V0.732331H240.293C241.405 0.732331 242.276 0.991045 242.904 1.50847C243.533 2.0259 243.848 2.81181 243.848 3.86619C243.848 4.92057 243.533 5.73088 242.904 6.29712C242.276 6.86337 241.405 7.14649 240.293 7.14649H238.174ZM238.174 5.55027H240.046C240.375 5.55027 240.65 5.51122 240.873 5.43312C241.095 5.34525 241.27 5.2281 241.395 5.08166C241.521 4.92545 241.608 4.7546 241.656 4.56911C241.715 4.38362 241.744 4.18348 241.744 3.9687C241.744 3.74415 241.715 3.53425 241.656 3.339C241.608 3.14374 241.521 2.96801 241.395 2.81181C241.27 2.6556 241.095 2.53845 240.873 2.46035C240.65 2.37248 240.375 2.32855 240.046 2.32855H238.174V5.55027Z" fill="white"/>
<path d="M245.58 10.5V9.05023C245.909 8.83545 246.272 8.57674 246.668 8.27409C247.075 7.96168 247.471 7.61998 247.858 7.249C248.255 6.86825 248.613 6.47774 248.932 6.07746C249.261 5.66742 249.522 5.26227 249.716 4.86199C249.919 4.46172 250.02 4.08097 250.02 3.71975C250.02 3.39757 249.953 3.12422 249.817 2.89967C249.682 2.66536 249.474 2.48475 249.193 2.35784C248.922 2.23092 248.584 2.16746 248.177 2.16746C247.674 2.16746 247.22 2.26997 246.814 2.47499C246.407 2.68001 246.025 2.9192 245.667 3.19256V1.42061C246.035 1.19606 246.465 0.995927 246.959 0.820197C247.452 0.644466 248.032 0.556601 248.7 0.556601C249.435 0.556601 250.044 0.683517 250.528 0.93735C251.021 1.18142 251.389 1.52312 251.631 1.96244C251.873 2.40177 251.994 2.90943 251.994 3.48544C251.994 3.94429 251.897 4.3885 251.703 4.81806C251.51 5.24762 251.254 5.66254 250.934 6.06282C250.625 6.46309 250.277 6.84384 249.89 7.20506C249.512 7.55652 249.13 7.88846 248.743 8.20087C248.356 8.50352 247.999 8.77687 247.67 9.02094L247.249 8.65484H252.168V10.5H245.58Z" fill="white"/>
<path d="M254.324 10.5V0.732331H260.81V2.32855H256.297V4.80342H260.215V6.41428H256.297V8.90379H260.81V10.5H254.324Z" fill="white"/>
<path d="M268.909 7.14649V10.5H266.935V0.732331H271.027C272.139 0.732331 273.01 0.991045 273.639 1.50847C274.267 2.0259 274.582 2.81181 274.582 3.86619C274.582 4.92057 274.267 5.73088 273.639 6.29712C273.01 6.86337 272.139 7.14649 271.027 7.14649H268.909ZM268.909 5.55027H270.78C271.109 5.55027 271.385 5.51122 271.607 5.43312C271.83 5.34525 272.004 5.2281 272.13 5.08166C272.255 4.92545 272.342 4.7546 272.391 4.56911C272.449 4.38362 272.478 4.18348 272.478 3.9687C272.478 3.74415 272.449 3.53425 272.391 3.339C272.342 3.14374 272.255 2.96801 272.13 2.81181C272.004 2.6556 271.83 2.53845 271.607 2.46035C271.385 2.37248 271.109 2.32855 270.78 2.32855H268.909V5.55027Z" fill="white"/>
<path d="M279.013 10.7197C278.607 10.7197 278.22 10.6806 277.853 10.6025C277.485 10.5244 277.156 10.3975 276.866 10.2218C276.576 10.0363 276.344 9.78732 276.169 9.47491C276.005 9.15274 275.923 8.75247 275.923 8.27409C275.923 7.77619 276.024 7.35639 276.228 7.01469C276.431 6.66323 276.726 6.39963 277.113 6.2239C277.509 6.03841 277.993 5.94566 278.564 5.94566C278.912 5.94566 279.236 5.97983 279.536 6.04817C279.836 6.10675 280.106 6.18973 280.348 6.29712C280.59 6.40451 280.788 6.52167 280.943 6.64858L281.074 7.68832C280.871 7.55164 280.609 7.44425 280.29 7.36615C279.981 7.27829 279.642 7.23435 279.275 7.23435C278.762 7.23435 278.38 7.31734 278.128 7.4833C277.877 7.64927 277.751 7.90799 277.751 8.25945C277.751 8.50352 277.819 8.70853 277.954 8.8745C278.09 9.03071 278.264 9.15274 278.477 9.24061C278.689 9.31871 278.912 9.35776 279.144 9.35776C279.676 9.35776 280.058 9.32359 280.29 9.25525C280.532 9.17715 280.653 9.01606 280.653 8.77199V5.8578C280.653 5.37942 280.503 5.03284 280.203 4.81806C279.903 4.59352 279.483 4.48124 278.941 4.48124C278.525 4.48124 278.099 4.55447 277.664 4.70091C277.229 4.83759 276.876 5.0182 276.605 5.24274V3.55866C276.866 3.39269 277.258 3.24625 277.78 3.11933C278.302 2.99242 278.863 2.92896 279.463 2.92896C279.715 2.92896 279.981 2.95337 280.261 3.00218C280.542 3.051 280.808 3.1291 281.059 3.23649C281.32 3.34388 281.557 3.4952 281.77 3.69046C281.983 3.87595 282.152 4.11514 282.278 4.40802C282.404 4.69114 282.467 5.03772 282.467 5.44776V8.94772C282.467 9.40657 282.322 9.7678 282.031 10.0314C281.741 10.2852 281.34 10.461 280.827 10.5586C280.314 10.666 279.71 10.7197 279.013 10.7197Z" fill="white"/>
<path d="M284.504 10.5V3.8369C284.639 3.74904 284.876 3.63188 285.215 3.48544C285.563 3.339 285.965 3.21208 286.419 3.10469C286.874 2.98754 287.333 2.92896 287.798 2.92896C288.146 2.92896 288.422 2.95825 288.625 3.01683C288.838 3.06564 289.002 3.1291 289.118 3.2072V4.61304C288.925 4.58375 288.702 4.55935 288.451 4.53982C288.209 4.5203 287.957 4.51541 287.696 4.52518C287.445 4.52518 287.198 4.53494 286.956 4.55447C286.724 4.57399 286.521 4.5984 286.347 4.62769V10.5H284.504Z" fill="white"/>
<path d="M293.298 10.7343C292.544 10.7343 291.968 10.5488 291.572 10.1778C291.175 9.79709 290.977 9.25037 290.977 8.53769V4.58375H289.845V3.11933H290.977V1.08379H292.878V3.11933H294.575V4.58375H292.878V8.2448C292.878 8.54745 292.936 8.77199 293.052 8.91844C293.168 9.06488 293.371 9.1381 293.661 9.1381C293.816 9.1381 293.975 9.11369 294.14 9.06488C294.314 9.0063 294.459 8.93796 294.575 8.85986V10.4707C294.382 10.5683 294.169 10.6367 293.937 10.6757C293.714 10.7148 293.501 10.7343 293.298 10.7343Z" fill="white"/>
<path d="M296.279 3.73439C296.482 3.63676 296.724 3.53913 297.005 3.44151C297.285 3.34388 297.59 3.2609 297.919 3.19256C298.248 3.11445 298.577 3.05588 298.905 3.01683C299.244 2.96801 299.563 2.9436 299.863 2.9436C300.54 2.9436 301.101 3.03635 301.546 3.22184C302.001 3.39757 302.339 3.6807 302.562 4.07121C302.794 4.45196 302.91 4.95474 302.91 5.57956V10.5H301.082V5.90173C301.082 5.71624 301.058 5.54051 301.009 5.37454C300.961 5.19881 300.879 5.04749 300.763 4.92057C300.647 4.78389 300.487 4.68138 300.284 4.61304C300.081 4.53494 299.82 4.49589 299.5 4.49589C299.259 4.49589 299.012 4.5203 298.76 4.56911C298.509 4.61792 298.296 4.68138 298.122 4.75948V10.5H296.279V3.73439Z" fill="white"/>
<path d="M308.158 10.7197C307.433 10.7197 306.799 10.5732 306.257 10.2803C305.716 9.9777 305.295 9.53837 304.995 8.96237C304.695 8.38636 304.545 7.6932 304.545 6.88289C304.545 5.5942 304.85 4.61304 305.459 3.93941C306.078 3.25601 306.944 2.91432 308.057 2.91432C308.859 2.91432 309.503 3.09005 309.986 3.44151C310.48 3.79297 310.838 4.29575 311.06 4.94986C311.292 5.5942 311.404 6.36546 311.394 7.26364H305.735L305.59 6.00424H309.928L309.58 6.53143C309.561 5.76017 309.425 5.20857 309.174 4.87664C308.932 4.53494 308.54 4.36409 307.999 4.36409C307.67 4.36409 307.379 4.44219 307.128 4.5984C306.886 4.74484 306.697 4.99379 306.562 5.34525C306.436 5.69671 306.373 6.17997 306.373 6.79503C306.373 7.55652 306.552 8.14229 306.91 8.55233C307.268 8.9526 307.815 9.15274 308.55 9.15274C308.85 9.15274 309.135 9.12345 309.406 9.06488C309.687 8.99654 309.943 8.91844 310.175 8.83057C310.417 8.7427 310.62 8.65972 310.784 8.58162V10.2218C310.446 10.3682 310.059 10.4854 309.624 10.5732C309.198 10.6709 308.71 10.7197 308.158 10.7197Z" fill="white"/>
<path d="M313.014 10.5V3.8369C313.149 3.74904 313.386 3.63188 313.725 3.48544C314.073 3.339 314.474 3.21208 314.929 3.10469C315.384 2.98754 315.843 2.92896 316.307 2.92896C316.656 2.92896 316.931 2.95825 317.135 3.01683C317.347 3.06564 317.512 3.1291 317.628 3.2072V4.61304C317.434 4.58375 317.212 4.55935 316.96 4.53982C316.719 4.5203 316.467 4.51541 316.206 4.52518C315.954 4.52518 315.708 4.53494 315.466 4.55447C315.234 4.57399 315.031 4.5984 314.856 4.62769V10.5H313.014Z" fill="white"/>
<path d="M326.281 10.7197C325.082 10.7197 324.182 10.3829 323.582 9.70922C322.982 9.03559 322.683 8.06419 322.683 6.79503C322.683 5.438 322.987 4.45196 323.597 3.8369C324.216 3.22184 325.106 2.91432 326.266 2.91432C327.079 2.91432 327.756 3.06076 328.298 3.35364C328.84 3.63676 329.241 4.06633 329.502 4.64233C329.773 5.21834 329.909 5.9359 329.909 6.79503C329.909 8.06419 329.594 9.03559 328.965 9.70922C328.346 10.3829 327.451 10.7197 326.281 10.7197ZM326.281 9.19667C326.707 9.19667 327.05 9.09905 327.311 8.90379C327.582 8.70854 327.78 8.43518 327.906 8.08372C328.032 7.72249 328.095 7.29293 328.095 6.79503C328.095 6.23855 328.027 5.78458 327.892 5.43312C327.766 5.08166 327.568 4.82294 327.297 4.65697C327.036 4.49101 326.697 4.40802 326.281 4.40802C325.855 4.40802 325.512 4.49589 325.251 4.67162C324.99 4.84735 324.796 5.11094 324.67 5.46241C324.554 5.81387 324.496 6.25807 324.496 6.79503C324.496 7.57605 324.637 8.17158 324.917 8.58162C325.198 8.99166 325.652 9.19667 326.281 9.19667Z" fill="white"/>
<path d="M332.128 10.5V4.58375H331.011V3.11933H332.143V2.88503C332.143 2.38712 332.196 1.96732 332.302 1.62563C332.409 1.28393 332.549 1.00569 332.723 0.790908C332.907 0.566364 333.11 0.400396 333.333 0.293006C333.565 0.175852 333.807 0.0977493 334.058 0.0586981C334.31 0.0196474 334.561 0.00012207 334.813 0.00012207C334.958 0.00012207 335.112 0.00988474 335.277 0.0294101C335.441 0.0489354 335.582 0.0782237 335.698 0.117275V1.75743C335.611 1.67932 335.514 1.62075 335.408 1.58169C335.311 1.53288 335.18 1.50847 335.016 1.50847C334.88 1.50847 334.75 1.52312 334.624 1.55241C334.498 1.57193 334.387 1.62563 334.29 1.71349C334.194 1.79159 334.116 1.90875 334.058 2.06495C334.01 2.22116 333.986 2.43106 333.986 2.69465V3.11933H335.698V4.58375H333.971V10.5H332.128Z" fill="white"/>
<path d="M15.7674 55.116C12.6075 55.116 9.83449 54.5465 7.44842 53.4075C5.09459 52.2685 3.25667 50.4624 1.93465 47.9891C0.644885 45.4834 0 42.2128 0 38.1775C0 34.2073 0.644885 30.9693 1.93465 28.4635C3.25667 25.9578 5.09459 24.1191 7.44842 22.9476C9.83449 21.7435 12.6075 21.1415 15.7674 21.1415C17.7988 21.1415 19.7818 21.353 21.7165 21.776C23.6511 22.1991 25.5052 22.7849 27.2786 23.5333V30.709C25.344 29.7002 23.5383 28.8866 21.8616 28.2683C20.2171 27.65 18.5082 27.3408 16.7348 27.3408C14.8968 27.3408 13.3169 27.6663 11.9949 28.3171C10.7051 28.968 9.72164 30.0907 9.04451 31.6853C8.36738 33.2473 8.02882 35.3951 8.02882 38.1287C8.02882 40.8298 8.36738 42.9776 9.04451 44.5722C9.75388 46.1342 10.7373 47.2569 11.9949 47.9403C13.2524 48.6237 14.7195 48.9654 16.3962 48.9654C17.2668 48.9654 18.0729 48.9166 18.8145 48.819C19.5884 48.6888 20.2655 48.4773 20.8459 48.1844V42.4243H15.5256V36.2738H28.6812V51.6014C26.6821 52.7078 24.5862 53.5702 22.3936 54.1885C20.2333 54.8068 18.0245 55.116 15.7674 55.116Z" fill="white"/>
<path d="M44.7415 55.1648C43.2583 55.1648 41.8557 55.0184 40.5336 54.7255C39.2439 54.4651 38.0992 54.0258 37.0996 53.4075C36.1323 52.7566 35.3746 51.8943 34.8264 50.8204C34.2783 49.7139 34.0042 48.3471 34.0042 46.72C34.0042 45.1905 34.3105 43.8562 34.9232 42.7172C35.568 41.5782 36.5354 40.6996 37.8251 40.0813C39.1149 39.463 40.7432 39.1538 42.7101 39.1538C43.8064 39.1538 44.8705 39.2677 45.9023 39.4955C46.9341 39.7233 47.8531 40.0325 48.6592 40.423C49.4975 40.8135 50.1586 41.2365 50.6422 41.6921L50.9324 45.2067C50.2875 44.8162 49.5137 44.5071 48.6108 44.2793C47.708 44.0515 46.7407 43.9376 45.7089 43.9376C44.1289 43.9376 42.9681 44.1816 42.2265 44.6698C41.5171 45.1254 41.1624 45.8576 41.1624 46.8664C41.1624 47.4847 41.3398 48.0379 41.6944 48.5261C42.0491 49.0142 42.5167 49.3885 43.0971 49.6488C43.7097 49.9092 44.3385 50.0393 44.9834 50.0393C46.6278 50.0393 47.7725 49.9254 48.4174 49.6976C49.0945 49.4698 49.4331 49.0142 49.4331 48.3308V39.2514C49.4331 37.7545 48.9494 36.6806 47.9821 36.0297C47.047 35.3463 45.7088 35.0046 43.9677 35.0046C42.5489 35.0046 41.1141 35.265 39.6631 35.7856C38.2443 36.2738 37.0835 36.8758 36.1807 37.5918V31.1483C37.019 30.6276 38.3088 30.1395 40.05 29.6839C41.8234 29.2283 43.8064 29.0005 45.9991 29.0005C46.7729 29.0005 47.6274 29.0656 48.5625 29.1958C49.4975 29.3259 50.4326 29.57 51.3677 29.928C52.3028 30.2534 53.1573 30.7415 53.9311 31.3924C54.7372 32.0432 55.3821 32.8731 55.8658 33.8819C56.3494 34.8907 56.5913 36.1436 56.5913 37.6406L56.5429 49.3071C56.5429 50.7065 56.0754 51.8454 55.1403 52.7241C54.2052 53.5702 52.851 54.1885 51.0775 54.579C49.3363 54.9695 47.2243 55.1648 44.7415 55.1648Z" fill="white"/>
<path d="M70.1467 54.4326H62.9885V20.4092H70.1467V54.4326Z" fill="white"/>
<path d="M85.9757 55.1648C84.4925 55.1648 83.0899 55.0184 81.7679 54.7255C80.4781 54.4651 79.3334 54.0258 78.3338 53.4075C77.3665 52.7566 76.6088 51.8943 76.0606 50.8204C75.5125 49.7139 75.2384 48.3471 75.2384 46.72C75.2384 45.1905 75.5447 43.8562 76.1574 42.7172C76.8022 41.5782 77.7696 40.6996 79.0593 40.0813C80.3491 39.463 81.9775 39.1538 83.9443 39.1538C85.0407 39.1538 86.1047 39.2677 87.1365 39.4955C88.1683 39.7233 89.0873 40.0325 89.8934 40.423C90.7318 40.8135 91.3928 41.2365 91.8764 41.6921L92.1666 45.2067C91.5217 44.8162 90.7479 44.5071 89.845 44.2793C88.9422 44.0515 87.9749 43.9376 86.9431 43.9376C85.3631 43.9376 84.2023 44.1816 83.4607 44.6698C82.7513 45.1254 82.3966 45.8576 82.3966 46.8664C82.3966 47.4847 82.574 48.0379 82.9286 48.5261C83.2833 49.0142 83.7509 49.3885 84.3313 49.6488C84.9439 49.9092 85.5727 50.0393 86.2176 50.0393C87.862 50.0393 89.0067 49.9254 89.6516 49.6976C90.3287 49.4698 90.6673 49.0142 90.6673 48.3308V39.2514C90.6673 37.7545 90.1836 36.6806 89.2163 36.0297C88.2812 35.3463 86.9431 35.0046 85.2019 35.0046C83.7831 35.0046 82.3483 35.265 80.8973 35.7856C79.4785 36.2738 78.3177 36.8758 77.4149 37.5918V31.1483C78.2532 30.6276 79.543 30.1395 81.2842 29.6839C83.0576 29.2283 85.0407 29.0005 87.2333 29.0005C88.0071 29.0005 88.8616 29.0656 89.7967 29.1958C90.7318 29.3259 91.6668 29.57 92.6019 29.928C93.537 30.2534 94.3915 30.7415 95.1653 31.3924C95.9714 32.0432 96.6163 32.8731 97.1 33.8819C97.5837 34.8907 97.8255 36.1436 97.8255 37.6406L97.7771 49.3071C97.7771 50.7065 97.3096 51.8454 96.3745 52.7241C95.4394 53.5702 94.0852 54.1885 92.3117 54.579C90.5705 54.9695 88.4585 55.1648 85.9757 55.1648Z" fill="white"/>
<path d="M114.235 55.4089C111.397 55.4089 109.285 54.7417 107.899 53.4075C106.512 52.0407 105.819 50.1207 105.819 47.6474V35.2975H102.24V29.7327H105.819V22.9476H113.364V29.7327H118.733V35.2975H113.364V46.72C113.364 47.5661 113.541 48.2007 113.896 48.6237C114.251 49.0142 114.847 49.2095 115.686 49.2095C116.169 49.2095 116.701 49.1119 117.282 48.9166C117.862 48.7213 118.346 48.4773 118.733 48.1844V54.4326C118.055 54.7906 117.314 55.0346 116.508 55.1648C115.734 55.3275 114.976 55.4089 114.235 55.4089Z" fill="white"/>
<path d="M133.634 55.1648C132.15 55.1648 130.748 55.0184 129.426 54.7255C128.136 54.4651 126.991 54.0258 125.992 53.4075C125.024 52.7566 124.267 51.8943 123.718 50.8204C123.17 49.7139 122.896 48.3471 122.896 46.72C122.896 45.1905 123.203 43.8562 123.815 42.7172C124.46 41.5782 125.427 40.6996 126.717 40.0813C128.007 39.463 129.635 39.1538 131.602 39.1538C132.699 39.1538 133.763 39.2677 134.794 39.4955C135.826 39.7233 136.745 40.0325 137.551 40.423C138.39 40.8135 139.051 41.2365 139.534 41.6921L139.824 45.2067C139.18 44.8162 138.406 44.5071 137.503 44.2793C136.6 44.0515 135.633 43.9376 134.601 43.9376C133.021 43.9376 131.86 44.1816 131.119 44.6698C130.409 45.1254 130.054 45.8576 130.054 46.8664C130.054 47.4847 130.232 48.0379 130.587 48.5261C130.941 49.0142 131.409 49.3885 131.989 49.6488C132.602 49.9092 133.231 50.0393 133.875 50.0393C135.52 50.0393 136.665 49.9254 137.309 49.6976C137.987 49.4698 138.325 49.0142 138.325 48.3308V39.2514C138.325 37.7545 137.841 36.6806 136.874 36.0297C135.939 35.3463 134.601 35.0046 132.86 35.0046C131.441 35.0046 130.006 35.265 128.555 35.7856C127.136 36.2738 125.976 36.8758 125.073 37.5918V31.1483C125.911 30.6276 127.201 30.1395 128.942 29.6839C130.715 29.2283 132.699 29.0005 134.891 29.0005C135.665 29.0005 136.519 29.0656 137.455 29.1958C138.39 29.3259 139.325 29.57 140.26 29.928C141.195 30.2534 142.049 30.7415 142.823 31.3924C143.629 32.0432 144.274 32.8731 144.758 33.8819C145.242 34.8907 145.483 36.1436 145.483 37.6406L145.435 49.3071C145.435 50.7065 144.967 51.8454 144.032 52.7241C143.097 53.5702 141.743 54.1885 139.97 54.579C138.228 54.9695 136.116 55.1648 133.634 55.1648Z" fill="white"/>
<path d="M159.136 55.1648C157.394 55.1648 155.895 54.9695 154.637 54.579C153.412 54.2211 152.251 53.8143 151.155 53.3587V46.964C151.832 47.4196 152.59 47.8915 153.428 48.3797C154.267 48.8352 155.186 49.2095 156.185 49.5024C157.217 49.7953 158.297 49.9417 159.426 49.9417C160.587 49.9417 161.393 49.7464 161.844 49.3559C162.328 48.9329 162.57 48.4285 162.57 47.8427C162.57 47.2895 162.328 46.8501 161.844 46.5247C161.36 46.1667 160.732 45.8739 159.958 45.6461C159.184 45.4183 158.362 45.2067 157.491 45.0115C156.717 44.8488 155.943 44.6047 155.169 44.2793C154.396 43.9213 153.702 43.4494 153.09 42.8637C152.477 42.2779 151.977 41.562 151.59 40.7159C151.236 39.8372 151.058 38.7796 151.058 37.5429C151.058 35.9484 151.365 34.6304 151.977 33.589C152.59 32.5151 153.396 31.6527 154.396 31.0019C155.395 30.351 156.475 29.8954 157.636 29.6351C158.797 29.3422 159.926 29.212 161.022 29.2446C163.021 29.3097 164.601 29.5375 165.762 29.928C166.955 30.2859 168.035 30.7578 169.002 31.3436V37.0548C167.906 36.4365 166.81 35.867 165.713 35.3463C164.649 34.7931 163.424 34.5165 162.037 34.5165C160.78 34.5165 159.877 34.7117 159.329 35.1022C158.781 35.4928 158.507 36.0134 158.507 36.6643C158.507 37.2826 158.684 37.7707 159.039 38.1287C159.426 38.4867 159.925 38.7796 160.538 39.0074C161.151 39.2026 161.828 39.3979 162.57 39.5931C163.376 39.7884 164.198 40.0325 165.036 40.3253C165.907 40.5857 166.713 40.9762 167.455 41.4969C168.228 41.985 168.841 42.6847 169.292 43.5959C169.776 44.4745 170.018 45.6461 170.018 47.1105C169.986 49.0956 169.454 50.6902 168.422 51.8943C167.39 53.0658 166.052 53.9119 164.407 54.4326C162.795 54.9207 161.038 55.1648 159.136 55.1648Z" fill="white"/>
<path d="M184.645 55.1648C183.162 55.1648 181.759 55.0184 180.437 54.7255C179.147 54.4651 178.003 54.0258 177.003 53.4075C176.036 52.7566 175.278 51.8943 174.73 50.8204C174.182 49.7139 173.908 48.3471 173.908 46.72C173.908 45.1905 174.214 43.8562 174.827 42.7172C175.472 41.5782 176.439 40.6996 177.729 40.0813C179.018 39.463 180.647 39.1538 182.614 39.1538C183.71 39.1538 184.774 39.2677 185.806 39.4955C186.838 39.7233 187.757 40.0325 188.563 40.423C189.401 40.8135 190.062 41.2365 190.546 41.6921L190.836 45.2067C190.191 44.8162 189.417 44.5071 188.514 44.2793C187.611 44.0515 186.644 43.9376 185.612 43.9376C184.032 43.9376 182.872 44.1816 182.13 44.6698C181.421 45.1254 181.066 45.8576 181.066 46.8664C181.066 47.4847 181.243 48.0379 181.598 48.5261C181.953 49.0142 182.42 49.3885 183.001 49.6488C183.613 49.9092 184.242 50.0393 184.887 50.0393C186.531 50.0393 187.676 49.9254 188.321 49.6976C188.998 49.4698 189.337 49.0142 189.337 48.3308V39.2514C189.337 37.7545 188.853 36.6806 187.886 36.0297C186.95 35.3463 185.612 35.0046 183.871 35.0046C182.452 35.0046 181.018 35.265 179.567 35.7856C178.148 36.2738 176.987 36.8758 176.084 37.5918V31.1483C176.922 30.6276 178.212 30.1395 179.953 29.6839C181.727 29.2283 183.71 29.0005 185.903 29.0005C186.676 29.0005 187.531 29.0656 188.466 29.1958C189.401 29.3259 190.336 29.57 191.271 29.928C192.206 30.2534 193.061 30.7415 193.835 31.3924C194.641 32.0432 195.286 32.8731 195.769 33.8819C196.253 34.8907 196.495 36.1436 196.495 37.6406L196.446 49.3071C196.446 50.7065 195.979 51.8454 195.044 52.7241C194.109 53.5702 192.754 54.1885 190.981 54.579C189.24 54.9695 187.128 55.1648 184.645 55.1648Z" fill="white"/>
<path d="M202.892 54.4326V32.3199C203.343 31.9293 204.149 31.49 205.31 31.0019C206.471 30.4812 207.793 30.0256 209.276 29.6351C210.792 29.212 212.307 29.0005 213.823 29.0005C215.338 29.0005 216.531 29.1144 217.402 29.3422C218.272 29.57 218.933 29.8629 219.385 30.2209V35.5416C218.837 35.4114 218.143 35.3138 217.305 35.2487C216.467 35.1836 215.596 35.1511 214.693 35.1511C213.79 35.1185 212.936 35.1185 212.13 35.1511C211.324 35.1836 210.647 35.2487 210.099 35.3463V54.4326H202.892Z" fill="white"/>
<path d="M233.011 55.1648C231.528 55.1648 230.125 55.0184 228.803 54.7255C227.514 54.4651 226.369 54.0258 225.369 53.4075C224.402 52.7566 223.644 51.8943 223.096 50.8204C222.548 49.7139 222.274 48.3471 222.274 46.72C222.274 45.1905 222.58 43.8562 223.193 42.7172C223.838 41.5782 224.805 40.6996 226.095 40.0813C227.385 39.463 229.013 39.1538 230.98 39.1538C232.076 39.1538 233.14 39.2677 234.172 39.4955C235.204 39.7233 236.123 40.0325 236.929 40.423C237.767 40.8135 238.428 41.2365 238.912 41.6921L239.202 45.2067C238.557 44.8162 237.784 44.5071 236.881 44.2793C235.978 44.0515 235.01 43.9376 233.979 43.9376C232.399 43.9376 231.238 44.1816 230.496 44.6698C229.787 45.1254 229.432 45.8576 229.432 46.8664C229.432 47.4847 229.61 48.0379 229.964 48.5261C230.319 49.0142 230.786 49.3885 231.367 49.6488C231.98 49.9092 232.608 50.0393 233.253 50.0393C234.898 50.0393 236.042 49.9254 236.687 49.6976C237.364 49.4698 237.703 49.0142 237.703 48.3308V39.2514C237.703 37.7545 237.219 36.6806 236.252 36.0297C235.317 35.3463 233.979 35.0046 232.237 35.0046C230.819 35.0046 229.384 35.265 227.933 35.7856C226.514 36.2738 225.353 36.8758 224.45 37.5918V31.1483C225.289 30.6276 226.579 30.1395 228.32 29.6839C230.093 29.2283 232.076 29.0005 234.269 29.0005C235.043 29.0005 235.897 29.0656 236.832 29.1958C237.767 29.3259 238.702 29.57 239.638 29.928C240.573 30.2534 241.427 30.7415 242.201 31.3924C243.007 32.0432 243.652 32.8731 244.136 33.8819C244.619 34.8907 244.861 36.1436 244.861 37.6406L244.813 49.3071C244.813 50.7065 244.345 51.8454 243.41 52.7241C242.475 53.5702 241.121 54.1885 239.347 54.579C237.606 54.9695 235.494 55.1648 233.011 55.1648Z" fill="white"/>
<path d="M255.114 64.0001C254.308 64.0001 253.518 63.9188 252.744 63.7561C251.971 63.5933 251.31 63.3818 250.761 63.1215V57.215C251.277 57.4102 251.761 57.5404 252.212 57.6055C252.664 57.7031 253.131 57.7519 253.615 57.7519C254.421 57.7519 255.114 57.5567 255.695 57.1662C256.307 56.8082 256.807 56.1736 257.194 55.2624C257.581 54.3838 257.887 53.1797 258.113 51.6502L258.258 55.7994L247.763 29.7327H256.033L261.595 47.0617H260.87L266.384 29.7327H274.122L264.497 54.8231C263.627 57.1011 262.676 58.9072 261.644 60.2414C260.644 61.5757 259.596 62.5357 258.5 63.1215C257.404 63.7072 256.275 64.0001 255.114 64.0001Z" fill="white"/>
<path d="M302.907 55.116C301.263 55.116 299.779 55.0346 298.457 54.8719C297.135 54.7092 295.91 54.4651 294.782 54.1397C293.653 53.8143 292.557 53.3912 291.493 52.8705V45.3532C292.976 46.5573 294.653 47.4685 296.523 48.0868C298.393 48.7051 300.166 49.0142 301.843 49.0142C303.326 49.0142 304.455 48.7376 305.229 48.1844C306.035 47.5986 306.438 46.72 306.438 45.5484C306.438 44.6698 306.067 43.9701 305.325 43.4494C304.616 42.8962 303.665 42.4243 302.472 42.0338C301.279 41.6108 299.941 41.1389 298.457 40.6182C297.522 40.3253 296.603 39.9511 295.701 39.4955C294.798 39.0399 293.992 38.4704 293.282 37.787C292.573 37.0711 292.009 36.2087 291.589 35.1999C291.17 34.1911 290.961 32.9544 290.961 31.49C290.961 30.1558 291.202 28.8703 291.686 27.6337C292.17 26.3971 292.911 25.2906 293.911 24.3144C294.943 23.3381 296.249 22.5733 297.829 22.0201C299.409 21.4343 301.263 21.1415 303.391 21.1415C304.713 21.1415 305.874 21.2228 306.873 21.3855C307.905 21.5482 308.888 21.7923 309.824 22.1177C310.759 22.4106 311.71 22.8011 312.677 23.2893V30.9042C311.936 30.2859 311.097 29.7164 310.162 29.1958C309.259 28.6425 308.308 28.1869 307.308 27.829C306.309 27.471 305.261 27.2757 304.165 27.2432C303.197 27.2107 302.311 27.3083 301.505 27.5361C300.698 27.7639 300.07 28.1381 299.618 28.6588C299.167 29.1469 298.941 29.7815 298.941 30.5625C298.941 31.4737 299.215 32.1897 299.763 32.7104C300.311 33.231 301.069 33.6704 302.037 34.0283C303.004 34.3538 304.084 34.7117 305.277 35.1022C306.599 35.4928 307.808 35.9321 308.905 36.4202C310.033 36.8758 311.017 37.4616 311.855 38.1775C312.693 38.8935 313.338 39.7721 313.79 40.8135C314.241 41.8548 314.467 43.1077 314.467 44.5722C314.467 46.5247 314.015 48.3146 313.112 49.9417C312.21 51.5363 310.904 52.8054 309.195 53.7492C307.486 54.6604 305.39 55.116 302.907 55.116Z" fill="white"/>
<path d="M319.407 54.4326V47.5498H326.42V54.4326H319.407Z" fill="white"/>
<path d="M340.19 44.6698L337.53 39.6419L350.395 21.8737H360.262L340.19 44.6698ZM332.693 54.4326V21.8737H340.529V54.4326H332.693ZM347.203 34.2724L361.278 54.4326H351.459L341.157 39.3491L347.203 34.2724Z" fill="white"/>
<path d="M364.987 54.4326V47.5498H372V54.4326H364.987Z" fill="white"/>
</svg>
